<?xml version="1.0" encoding="UTF-8" standalone="no"?>
<!DOCTYPE svg PUBLIC "-//W3C//DTD SVG 1.1//EN" "http://www.w3.org/Graphics/SVG/1.1/DTD/svg11.dtd">
<svg width="100%" height="100%" viewBox="0 0 580 120" version="1.1" xmlns="http://www.w3.org/2000/svg" xmlns:xlink="http://www.w3.org/1999/xlink" xml:space="preserve" xmlns:serif="http://www.serif.com/" style="fill-rule:evenodd;clip-rule:evenodd;stroke-linejoin:round;stroke-miterlimit:2;">
    <g transform="matrix(1,0,0,1,40,5)">
        <g transform="matrix(1,0,0,1,-30,4.122)">
            <path d="M15.748,69.138L0.33,69.138L0.33,74.093L10.462,74.093C11.123,74.093 11.563,74.644 11.563,75.195L11.563,83.895L9.361,83.895C8.7,83.895 8.26,83.344 8.26,82.793L8.26,76.516L3.965,76.516C3.959,76.516 3.954,76.516 3.948,76.516C1.782,76.516 0,78.298 0,80.464C0,80.47 0,80.475 0,80.481L0,84.886C0,84.891 0,84.897 0,84.902C0,87.068 1.783,88.851 3.949,88.851C3.954,88.851 3.96,88.851 3.965,88.851L19.713,88.851L19.713,73.102C19.713,73.097 19.713,73.091 19.713,73.086C19.713,70.92 17.931,69.138 15.765,69.138C15.759,69.138 15.754,69.138 15.748,69.138ZM34.58,83.895L32.378,83.895C31.774,83.894 31.277,83.397 31.276,82.793L31.276,69.138L26.981,69.138C26.976,69.138 26.97,69.138 26.965,69.138C24.799,69.138 23.017,70.92 23.017,73.086C23.017,73.091 23.017,73.097 23.017,73.102L23.017,84.886C23.017,84.891 23.017,84.897 23.017,84.902C23.017,87.068 24.8,88.851 26.966,88.851C26.971,88.851 26.976,88.851 26.981,88.851L42.73,88.851L42.73,60.878L34.47,60.878L34.58,83.895ZM57.597,83.895L55.395,83.895C54.791,83.894 54.294,83.397 54.293,82.793L54.293,69.138L46.034,69.138L46.034,84.886C46.034,84.891 46.034,84.897 46.034,84.902C46.034,87.068 47.817,88.851 49.983,88.851C49.988,88.851 49.993,88.851 49.998,88.851L57.597,88.851L57.597,91.273L46.364,91.273L46.364,97L61.892,97C61.898,97 61.903,97 61.909,97C64.075,97 65.857,95.218 65.857,93.052C65.857,93.046 65.857,93.041 65.857,93.035L65.857,69.138L57.597,69.138L57.597,83.895ZM84.909,69.138L69.05,69.138L69.05,84.886C69.05,84.891 69.05,84.896 69.05,84.901C69.05,87.068 70.833,88.851 73,88.851C73.005,88.851 73.01,88.851 73.015,88.851L88.543,88.851L88.543,83.895L78.411,83.895C77.751,83.895 77.31,83.344 77.31,82.793L77.31,74.093L79.513,74.093C80.173,74.093 80.614,74.644 80.614,75.195L80.614,81.472L84.909,81.472C84.915,81.472 84.92,81.472 84.926,81.472C87.092,81.472 88.874,79.69 88.874,77.524C88.874,77.518 88.874,77.513 88.874,77.507L88.874,73.102C88.874,73.097 88.874,73.091 88.874,73.086C88.874,70.92 87.092,69.138 84.926,69.138C84.92,69.138 84.915,69.138 84.909,69.138ZM107.926,69.138L92.177,69.138L92.177,88.851L100.437,88.851L100.437,74.093L102.64,74.093C103.3,74.093 103.741,74.644 103.741,75.195L103.741,88.851L112.001,88.851L112.001,73.102C111.89,70.9 110.128,69.138 107.926,69.138Z" style="fill:rgb(53,180,84);fill-rule:nonzero;"/>
        </g>
        <g transform="matrix(1,0,0,1,13.8568,-9.76996e-15)">
            <path d="M378.433,36.898L379.059,32.921L377.664,32.889L371.006,32.889L375.633,3.547C375.662,3.363 375.822,3.225 376.009,3.226L387.237,3.226C390.964,3.226 393.537,4.001 394.88,5.532C395.509,6.251 395.91,7.001 396.104,7.827C396.308,8.694 396.311,9.729 396.113,10.992L396.098,11.084L396.098,11.893L396.728,12.25C397.258,12.531 397.68,12.853 398.003,13.222C398.541,13.836 398.89,14.616 399.037,15.542C399.189,16.493 399.139,17.626 398.89,18.908C398.603,20.382 398.138,21.667 397.511,22.718C396.957,23.659 396.213,24.475 395.326,25.112C394.493,25.703 393.503,26.152 392.384,26.439C391.3,26.722 390.063,26.864 388.707,26.864L387.833,26.864C387.208,26.864 386.601,27.089 386.125,27.493C385.649,27.9 385.333,28.464 385.234,29.082L385.169,29.44L384.062,36.449L384.012,36.706C383.999,36.787 383.976,36.828 383.943,36.856C383.911,36.883 383.87,36.897 383.828,36.898L378.433,36.898Z" style="fill:rgb(37,59,128);fill-rule:nonzero;"/>
            <path d="M397.324,11.177C397.291,11.392 397.252,11.611 397.209,11.836C395.729,19.438 390.663,22.064 384.193,22.064L380.899,22.064C380.113,22.064 379.438,22.643 379.318,23.419L377.631,34.116L377.153,37.148C377.146,37.191 377.143,37.235 377.143,37.279C377.143,37.741 377.523,38.122 377.985,38.122L383.828,38.122C384.52,38.122 385.107,37.619 385.216,36.937L385.274,36.64L386.374,29.659L386.445,29.276C386.551,28.595 387.144,28.089 387.833,28.089L388.707,28.089C394.368,28.089 398.799,25.791 400.094,19.14C400.635,16.362 400.355,14.042 398.923,12.41C398.49,11.918 397.953,11.51 397.324,11.177Z" style="fill:rgb(23,155,215);fill-rule:nonzero;"/>
            <path d="M395.775,10.56C395.302,10.423 394.821,10.316 394.335,10.24C393.374,10.093 392.403,10.022 391.431,10.028L382.631,10.028C381.942,10.027 381.349,10.535 381.244,11.216L379.371,23.073L379.318,23.419C379.438,22.643 380.113,22.064 380.899,22.064L384.193,22.064C390.663,22.064 395.729,19.437 397.209,11.836C397.254,11.611 397.291,11.392 397.324,11.177C396.933,10.973 396.526,10.801 396.107,10.664C395.997,10.627 395.886,10.593 395.775,10.56Z" style="fill:rgb(34,45,101);fill-rule:nonzero;"/>
            <path d="M381.244,11.216C381.349,10.535 381.942,10.027 382.631,10.03L391.431,10.03C392.474,10.03 393.447,10.098 394.335,10.241C394.936,10.335 395.529,10.476 396.108,10.664C396.545,10.809 396.951,10.98 397.325,11.177C397.766,8.368 397.322,6.455 395.803,4.723C394.128,2.816 391.106,2 387.238,2L376.01,2C375.22,2 374.546,2.575 374.424,3.356L369.747,33C369.739,33.05 369.735,33.1 369.735,33.151C369.735,33.68 370.17,34.115 370.699,34.116L377.631,34.116L379.371,23.073L381.244,11.216Z" style="fill:rgb(37,59,128);fill-rule:nonzero;"/>
        </g>
        <g transform="matrix(1,0,0,1,125.29,3.68968)">
            <path d="M129.43,97L155.387,97L155.387,78.698L129.43,78.698L129.43,97ZM138.612,86.416L141.059,88.864L146.728,83.195L148.547,85.015L141.059,92.503L136.793,88.236L138.612,86.416ZM137.085,70.583C137.085,67.655 139.47,65.27 142.419,65.27C145.332,65.274 147.728,67.67 147.732,70.583L147.732,76.084L152.124,76.084L152.124,70.583C152.103,65.228 147.753,60.878 142.419,60.878C137.065,60.878 132.714,65.228 132.714,70.583L132.714,76.084L137.106,76.084L137.106,70.583L137.085,70.583ZM176.659,77.109C176.659,74.473 175.111,72.967 172.664,72.047L170.405,71.085C168.606,70.437 167.351,69.997 167.351,68.889C167.351,67.801 168.292,67.195 169.694,67.195C171.513,67.195 172.685,67.738 173.981,68.68L176.115,66.023C174.436,64.453 172.222,63.578 169.924,63.576C165.908,63.576 163.105,66.023 163.105,69.119C163.105,71.838 164.988,73.428 167.079,74.201L169.484,75.226C171.262,75.958 172.371,76.314 172.371,77.632C172.371,78.573 171.534,79.263 169.756,79.263C167.958,79.263 166.222,78.468 164.82,77.318L162.394,80.204C164.381,81.982 166.954,82.882 169.464,82.882C174.065,82.882 176.659,80.183 176.659,77.109ZM186.928,72.047L184.67,71.085C182.871,70.437 181.616,69.997 181.616,68.889C181.616,67.801 182.557,67.195 183.958,67.195C185.778,67.195 186.949,67.738 188.246,68.68L190.38,66.023C188.701,64.454 186.487,63.579 184.188,63.576C180.173,63.576 177.37,66.023 177.37,69.119C177.37,71.838 179.252,73.428 181.344,74.201L183.749,75.226C185.527,75.958 186.636,76.314 186.636,77.632C186.636,78.573 185.799,79.263 184.021,79.263C182.222,79.263 180.486,78.468 179.085,77.318L176.659,80.204C178.646,81.982 181.218,82.882 183.728,82.882C188.351,82.882 190.944,80.204 190.944,77.109C190.923,74.473 189.397,72.967 186.928,72.047ZM196.717,78.991L196.717,63.911L192.534,63.911L192.534,82.526L205,82.526L205,78.991L196.717,78.991ZM166.347,89.136L165.218,88.654C164.527,88.362 163.774,88.09 163.774,87.316C163.774,86.584 164.402,86.145 165.343,86.145C166.18,86.145 166.786,86.437 167.33,86.898L167.874,86.228C167.21,85.578 166.314,85.217 165.385,85.224C163.858,85.224 162.749,86.124 162.749,87.358C162.749,88.529 163.691,89.115 164.486,89.428L165.636,89.93C166.452,90.286 167.079,90.537 167.079,91.394C167.079,92.147 166.431,92.67 165.322,92.67C164.402,92.67 163.565,92.273 162.959,91.666L162.352,92.378C163.084,93.11 164.088,93.57 165.28,93.57C167.058,93.57 168.125,92.545 168.125,91.269C168.125,90.077 167.33,89.533 166.347,89.136ZM171.325,89.638L174.672,89.638L174.672,88.759L171.325,88.759L171.325,86.228L175.278,86.228L175.278,85.371L170.3,85.371L170.3,93.423L175.404,93.423L175.404,92.545L171.325,92.545L171.325,89.638ZM180.654,92.67C179.106,92.67 178.102,91.394 178.102,89.366C178.102,87.358 179.106,86.103 180.654,86.103C181.323,86.103 181.867,86.396 182.264,86.835L182.85,86.186C182.292,85.56 181.492,85.202 180.654,85.203C178.562,85.203 177.035,86.793 177.035,89.387C177.035,92.022 178.562,93.57 180.549,93.57C181.616,93.57 182.411,93.131 183.038,92.398L182.452,91.771C181.971,92.357 181.407,92.67 180.654,92.67ZM189.02,90.411C189.02,92.085 188.288,92.691 187.305,92.691C186.343,92.691 185.611,92.085 185.611,90.411L185.611,85.371L184.586,85.371L184.586,90.391C184.586,92.691 185.736,93.591 187.305,93.591C188.874,93.591 190.003,92.712 190.003,90.391L190.003,85.371L188.999,85.371L188.999,90.411L189.02,90.411ZM197.533,87.63C197.533,85.956 196.362,85.371 194.73,85.371L192.22,85.371L192.22,93.423L193.245,93.423L193.245,90.014L194.688,90.014L196.634,93.423L197.805,93.423L195.755,89.909C196.801,89.638 197.533,88.885 197.533,87.63ZM194.563,89.177L193.224,89.177L193.224,86.186L194.563,86.186C195.818,86.186 196.508,86.563 196.508,87.63C196.508,88.675 195.818,89.177 194.563,89.177ZM200.775,89.638L204.122,89.638L204.122,88.759L200.775,88.759L200.775,86.228L204.728,86.228L204.728,85.371L199.729,85.371L199.729,93.423L204.854,93.423L204.854,92.545L200.775,92.545L200.775,89.638Z" style="fill:rgb(177,177,177);fill-rule:nonzero;"/>
        </g>
        <g transform="matrix(1,0,0,1,-17.8072,-1.06581e-14)">
            <g>
                <path d="M171.088,35.811L162.969,35.811L168.047,4.412L176.165,4.412L171.088,35.811ZM200.519,5.18C198.917,4.545 196.378,3.843 193.237,3.843C185.219,3.843 179.574,8.119 179.539,14.231C179.472,18.741 183.581,21.246 186.654,22.749C189.795,24.286 190.863,25.289 190.863,26.658C190.831,28.762 188.325,29.731 185.988,29.731C182.746,29.731 181.009,29.231 178.37,28.061L177.301,27.56L176.165,34.608C178.069,35.475 181.577,36.245 185.219,36.279C193.738,36.279 199.284,32.07 199.35,25.556C199.382,21.982 197.213,19.243 192.535,17.005C189.695,15.568 187.956,14.599 187.956,13.13C187.99,11.793 189.427,10.424 192.633,10.424C195.272,10.357 197.211,10.992 198.68,11.627L199.415,11.96L200.519,5.18ZM211.309,24.688C211.978,22.884 214.551,15.902 214.551,15.902C214.517,15.97 215.218,14.065 215.619,12.896L216.186,15.602C216.186,15.602 217.724,23.118 218.057,24.688L211.309,24.688ZM221.331,4.412L215.051,4.412C213.114,4.412 211.643,4.98 210.808,7.018L198.748,35.811L207.267,35.811L208.971,31.101L219.395,31.101C219.628,32.203 220.363,35.811 220.363,35.811L227.88,35.811L221.331,4.412ZM156.188,4.412L148.237,25.823L147.368,21.481C145.898,16.47 141.288,11.026 136.144,8.32L143.426,35.778L152.012,35.778L164.773,4.412L156.188,4.412Z" style="fill:rgb(0,87,159);fill-rule:nonzero;"/>
                <path d="M140.854,4.412L127.792,4.412L127.658,5.047C137.848,7.652 144.596,13.933 147.368,21.482L144.529,7.052C144.061,5.046 142.625,4.479 140.854,4.412Z" style="fill:rgb(250,166,26);fill-rule:nonzero;"/>
            </g>
        </g>
        <g transform="matrix(1,0,0,1,3.83333,-7.99361e-15)">
            <g>
                <path d="M347.934,8.331L329.908,8.331L328.066,10.403L322.126,17.103L320.284,19.175L302.511,19.175L304.307,17.08L305.159,16.09L306.955,13.995L298.782,13.995C297.285,13.995 296.065,15.261 296.065,16.78L296.065,22.674C296.065,24.217 297.285,25.46 298.782,25.46L330.138,25.46C331.635,25.46 333.684,24.539 334.673,23.388L339.416,18.001L347.934,8.331Z" style="fill:rgb(0,84,152);fill-rule:nonzero;"/>
                <path d="M351.549,2.046C353.045,2.046 354.266,3.312 354.266,4.832L354.266,10.702C354.266,12.245 353.045,13.488 351.549,13.488L343.399,13.488L345.218,11.416L346.116,10.38L347.934,8.308L329.908,8.308L320.308,19.129L302.419,19.129L315.243,4.625L315.726,4.072C316.739,2.944 318.788,2 320.284,2L351.549,2L351.549,2.046Z" style="fill:rgb(255,216,0);fill-rule:nonzero;"/>
                <path d="M354.266,37.8L354.266,36.948C354.266,36.833 354.196,36.764 354.035,36.764L353.483,36.764C353.322,36.764 353.206,36.741 353.183,36.672C353.137,36.603 353.137,36.464 353.137,36.234L353.137,33.011L354.035,33.011C354.096,33.013 354.155,32.987 354.196,32.942C354.242,32.901 354.267,32.842 354.266,32.781L354.266,31.883C354.267,31.822 354.242,31.763 354.196,31.722C354.155,31.677 354.096,31.651 354.035,31.653L353.137,31.653L353.137,30.479C353.137,30.41 353.114,30.364 353.091,30.341C353.045,30.318 352.999,30.294 352.953,30.294L352.93,30.294L351.595,30.525C351.54,30.544 351.486,30.567 351.434,30.594C351.388,30.64 351.365,30.686 351.365,30.732L351.365,31.63L350.467,31.63C350.406,31.628 350.347,31.654 350.306,31.699C350.261,31.74 350.235,31.799 350.237,31.86L350.237,32.597C350.237,32.666 350.26,32.712 350.306,32.735C350.351,32.779 350.406,32.81 350.467,32.827L351.365,32.965L351.365,36.188C351.365,36.58 351.411,36.902 351.48,37.155C351.572,37.408 351.687,37.593 351.825,37.731C351.986,37.869 352.17,37.961 352.401,38.007C352.631,38.053 352.907,38.076 353.206,38.076C353.368,38.076 353.506,38.076 353.644,38.053C353.759,38.03 353.92,38.007 354.081,37.984C354.196,37.984 354.266,37.915 354.266,37.8M349.477,37.685L349.477,36.695C349.477,36.626 349.454,36.58 349.408,36.557C349.362,36.534 349.316,36.511 349.27,36.511L349.247,36.511C349.039,36.534 348.832,36.557 348.648,36.557C348.464,36.58 348.211,36.58 347.888,36.58C347.645,36.579 347.412,36.479 347.244,36.303C347.152,36.211 347.106,36.073 347.06,35.912C347.008,35.709 346.985,35.5 346.99,35.29L346.99,34.369C346.99,34.116 347.013,33.909 347.06,33.748C347.106,33.587 347.175,33.449 347.244,33.356C347.411,33.178 347.644,33.078 347.888,33.08C348.211,33.08 348.464,33.08 348.648,33.103C348.832,33.126 349.039,33.126 349.247,33.149L349.27,33.149C349.339,33.149 349.385,33.126 349.408,33.103C349.454,33.08 349.477,33.034 349.477,32.965L349.477,31.975C349.477,31.883 349.454,31.837 349.431,31.814C349.385,31.791 349.339,31.745 349.247,31.722C349.085,31.676 348.901,31.653 348.648,31.607C348.395,31.561 348.119,31.561 347.773,31.561C346.99,31.561 346.369,31.791 345.885,32.274C345.425,32.758 345.172,33.449 345.172,34.369L345.172,35.29C345.172,36.188 345.402,36.902 345.885,37.385C346.346,37.869 346.99,38.099 347.773,38.099C348.096,38.099 348.395,38.076 348.648,38.053C348.901,38.007 349.108,37.984 349.247,37.938C349.316,37.927 349.38,37.895 349.431,37.846C349.477,37.823 349.477,37.754 349.477,37.685M342.271,36.511C342.13,36.579 341.984,36.632 341.833,36.672C341.676,36.717 341.513,36.741 341.35,36.741C341.12,36.741 340.936,36.718 340.82,36.649C340.705,36.58 340.659,36.441 340.659,36.188L340.659,36.096C340.659,35.958 340.682,35.843 340.705,35.751C340.736,35.654 340.792,35.567 340.866,35.498C340.951,35.425 341.055,35.376 341.166,35.359C341.325,35.328 341.487,35.312 341.649,35.313L342.271,35.313L342.271,36.511ZM344.021,33.817C344.021,33.403 343.951,33.057 343.836,32.781C343.721,32.516 343.548,32.279 343.33,32.09C343.097,31.897 342.82,31.763 342.524,31.699C342.171,31.604 341.807,31.557 341.442,31.561C341.074,31.561 340.705,31.584 340.36,31.63C340.015,31.676 339.738,31.722 339.531,31.791C339.393,31.837 339.324,31.906 339.324,32.044L339.324,32.942C339.324,33.011 339.347,33.057 339.37,33.103C339.412,33.128 339.459,33.144 339.508,33.149L339.554,33.149C339.646,33.149 339.761,33.126 339.877,33.126C340.015,33.126 340.153,33.103 340.314,33.103C340.475,33.103 340.659,33.08 340.843,33.08L341.373,33.08C341.626,33.08 341.833,33.126 341.972,33.218C342.11,33.31 342.202,33.518 342.202,33.84L342.202,34.231L341.603,34.231C340.659,34.231 339.946,34.369 339.531,34.669C339.094,34.968 338.887,35.452 338.887,36.096L338.887,36.188C338.887,36.557 338.933,36.856 339.048,37.086C339.163,37.339 339.301,37.524 339.485,37.685C339.669,37.823 339.853,37.938 340.084,38.007C340.314,38.076 340.544,38.099 340.797,38.099C341.12,38.099 341.419,38.053 341.649,37.961C341.879,37.869 342.11,37.754 342.34,37.593L342.34,37.777C342.34,37.846 342.363,37.892 342.409,37.938C342.45,37.983 342.509,38.009 342.57,38.007L343.813,38.007C343.874,38.009 343.934,37.983 343.975,37.938C344.02,37.897 344.046,37.838 344.044,37.777L344.044,33.817L344.021,33.817ZM338.104,37.8L338.104,36.948C338.104,36.833 338.035,36.764 337.874,36.764L337.321,36.764C337.16,36.764 337.045,36.741 337.022,36.672C336.976,36.603 336.976,36.464 336.976,36.234L336.976,33.011L337.874,33.011C337.935,33.013 337.994,32.987 338.035,32.942C338.08,32.901 338.106,32.842 338.104,32.781L338.104,31.883C338.106,31.822 338.08,31.763 338.035,31.722C337.994,31.677 337.935,31.651 337.874,31.653L336.976,31.653L336.976,30.479C336.976,30.41 336.953,30.364 336.93,30.341C336.884,30.318 336.838,30.294 336.792,30.294L336.769,30.294L335.433,30.525C335.378,30.544 335.324,30.567 335.272,30.594C335.226,30.64 335.203,30.686 335.203,30.732L335.203,31.63L334.282,31.63C334.221,31.628 334.162,31.654 334.121,31.699C334.076,31.74 334.05,31.799 334.052,31.86L334.052,32.597C334.052,32.666 334.075,32.712 334.121,32.735C334.166,32.779 334.221,32.81 334.282,32.827L335.18,32.965L335.18,36.188C335.18,36.58 335.226,36.902 335.295,37.155C335.387,37.408 335.502,37.593 335.64,37.731C335.802,37.869 335.986,37.961 336.216,38.007C336.446,38.053 336.722,38.076 337.022,38.076C337.183,38.076 337.321,38.076 337.459,38.053C337.574,38.03 337.735,38.007 337.897,37.984C338.035,37.984 338.104,37.915 338.104,37.8M333.269,37.777L333.269,34.093C333.274,33.761 333.243,33.429 333.177,33.103C333.13,32.818 333.028,32.544 332.878,32.297C332.737,32.064 332.528,31.879 332.279,31.768C332.026,31.63 331.704,31.561 331.289,31.561C330.944,31.561 330.622,31.607 330.345,31.699C330.069,31.791 329.793,31.929 329.47,32.159L329.47,31.883C329.472,31.822 329.446,31.763 329.401,31.722C329.36,31.677 329.301,31.651 329.24,31.653L327.997,31.653C327.936,31.651 327.877,31.677 327.836,31.722C327.791,31.763 327.765,31.822 327.767,31.883L327.767,37.777C327.767,37.846 327.79,37.892 327.836,37.938C327.877,37.983 327.936,38.009 327.997,38.007L329.332,38.007C329.393,38.009 329.452,37.983 329.493,37.938C329.538,37.897 329.564,37.838 329.562,37.777L329.562,33.426C329.747,33.333 329.931,33.241 330.115,33.172C330.276,33.103 330.46,33.08 330.622,33.08C330.783,33.08 330.921,33.103 331.036,33.126C331.151,33.149 331.22,33.218 331.289,33.287C331.358,33.379 331.381,33.472 331.404,33.61C331.427,33.748 331.427,33.909 331.427,34.093L331.427,37.777C331.427,37.846 331.45,37.892 331.496,37.938C331.537,37.984 331.597,38.009 331.658,38.007L332.993,38.007C333.054,38.009 333.113,37.983 333.154,37.938C333.246,37.892 333.269,37.823 333.269,37.777M324.889,35.221C324.889,36.119 324.567,36.58 323.899,36.58C323.577,36.58 323.323,36.464 323.162,36.234C323.001,36.004 322.909,35.659 322.909,35.221L322.909,34.439C322.909,33.978 323.001,33.656 323.162,33.426C323.323,33.195 323.577,33.08 323.899,33.08C324.544,33.08 324.889,33.541 324.889,34.439L324.889,35.221ZM326.685,34.439C326.685,34.001 326.616,33.587 326.501,33.241C326.388,32.908 326.208,32.602 325.971,32.343C325.741,32.09 325.441,31.906 325.096,31.768C324.714,31.623 324.308,31.552 323.899,31.561C323.439,31.561 323.047,31.63 322.702,31.768C322.356,31.906 322.057,32.09 321.827,32.343C321.597,32.597 321.413,32.896 321.297,33.241C321.182,33.587 321.113,34.001 321.113,34.439L321.113,35.221C321.113,35.659 321.182,36.073 321.297,36.418C321.413,36.764 321.597,37.063 321.827,37.316C322.057,37.57 322.356,37.754 322.702,37.892C323.047,38.03 323.439,38.099 323.899,38.099C324.359,38.099 324.751,38.03 325.096,37.892C325.441,37.754 325.741,37.57 325.971,37.316C326.201,37.063 326.385,36.764 326.501,36.418C326.616,36.073 326.685,35.659 326.685,35.221L326.685,34.439ZM320.538,37.685L320.538,36.695C320.538,36.626 320.515,36.58 320.469,36.557C320.423,36.534 320.377,36.511 320.308,36.511L320.284,36.511C320.077,36.534 319.87,36.557 319.686,36.557C319.502,36.58 319.248,36.58 318.926,36.58C318.683,36.579 318.45,36.479 318.282,36.303C318.189,36.211 318.143,36.073 318.097,35.912C318.046,35.709 318.023,35.499 318.028,35.29L318.028,34.369C318.028,34.116 318.051,33.909 318.097,33.748C318.143,33.587 318.212,33.449 318.282,33.356C318.449,33.178 318.682,33.078 318.926,33.08C319.248,33.08 319.502,33.08 319.686,33.103C319.87,33.126 320.077,33.126 320.284,33.149L320.308,33.149C320.365,33.148 320.42,33.132 320.469,33.103C320.515,33.08 320.538,33.034 320.538,32.965L320.538,31.975C320.538,31.883 320.515,31.837 320.492,31.814C320.446,31.791 320.4,31.745 320.308,31.722C320.146,31.676 319.962,31.653 319.709,31.607C319.456,31.561 319.179,31.561 318.834,31.561C318.051,31.561 317.43,31.791 316.946,32.274C316.486,32.758 316.233,33.449 316.233,34.369L316.233,35.29C316.233,36.188 316.463,36.902 316.946,37.385C317.407,37.869 318.051,38.099 318.834,38.099C319.156,38.099 319.456,38.076 319.709,38.053C319.962,38.007 320.146,37.984 320.308,37.938C320.377,37.927 320.441,37.895 320.492,37.846C320.515,37.823 320.538,37.754 320.538,37.685M315.081,37.777L315.081,34.093C315.086,33.761 315.055,33.429 314.989,33.103C314.942,32.818 314.84,32.544 314.69,32.297C314.549,32.064 314.34,31.879 314.091,31.768C313.838,31.63 313.516,31.561 313.102,31.561C312.756,31.561 312.434,31.607 312.158,31.699C311.881,31.791 311.605,31.929 311.283,32.159L311.283,31.883C311.285,31.822 311.259,31.763 311.214,31.722C311.173,31.677 311.114,31.651 311.053,31.653L309.809,31.653C309.748,31.651 309.689,31.677 309.648,31.722C309.603,31.763 309.577,31.822 309.579,31.883L309.579,37.777C309.579,37.846 309.602,37.892 309.648,37.938C309.689,37.983 309.748,38.009 309.809,38.007L311.145,38.007C311.206,38.009 311.265,37.983 311.306,37.938C311.351,37.897 311.377,37.838 311.375,37.777L311.375,33.426C311.559,33.333 311.743,33.241 311.927,33.172C312.088,33.108 312.261,33.077 312.434,33.08C312.595,33.08 312.733,33.103 312.848,33.126C312.963,33.149 313.032,33.218 313.102,33.287C313.171,33.379 313.194,33.472 313.217,33.61C313.24,33.748 313.24,33.909 313.24,34.093L313.24,37.777C313.24,37.846 313.263,37.892 313.309,37.938C313.35,37.983 313.409,38.009 313.47,38.007L314.805,38.007C314.866,38.009 314.925,37.983 314.966,37.938C315.058,37.892 315.081,37.823 315.081,37.777M306.517,36.511C306.377,36.578 306.23,36.632 306.08,36.672C305.923,36.717 305.76,36.741 305.596,36.741C305.366,36.741 305.182,36.718 305.067,36.649C304.952,36.58 304.906,36.441 304.906,36.188L304.906,36.096C304.906,35.958 304.929,35.843 304.952,35.751C304.983,35.654 305.039,35.567 305.113,35.498C305.198,35.424 305.301,35.376 305.412,35.359C305.571,35.328 305.733,35.312 305.895,35.313L306.517,35.313L306.517,36.511ZM308.29,33.817C308.29,33.403 308.221,33.057 308.106,32.781C307.991,32.516 307.818,32.279 307.599,32.09C307.366,31.897 307.089,31.763 306.793,31.699C306.44,31.603 306.076,31.557 305.711,31.561C305.349,31.56 304.988,31.583 304.629,31.63C304.284,31.676 304.008,31.722 303.8,31.791C303.662,31.837 303.593,31.906 303.593,32.044L303.593,32.942C303.593,33.011 303.616,33.057 303.639,33.103C303.681,33.128 303.728,33.144 303.777,33.149L303.823,33.149C303.916,33.149 304.031,33.126 304.146,33.126C304.284,33.126 304.422,33.103 304.606,33.103C304.767,33.103 304.952,33.08 305.136,33.08L305.665,33.08C305.919,33.08 306.126,33.126 306.264,33.218C306.402,33.31 306.494,33.518 306.494,33.84L306.494,34.231L305.895,34.231C304.952,34.231 304.238,34.369 303.823,34.669C303.386,34.968 303.179,35.452 303.179,36.096L303.179,36.188C303.179,36.557 303.225,36.856 303.34,37.086C303.455,37.339 303.593,37.524 303.777,37.685C303.962,37.823 304.146,37.938 304.376,38.007C304.606,38.076 304.836,38.099 305.09,38.099C305.412,38.099 305.711,38.053 305.942,37.961C306.172,37.869 306.402,37.754 306.632,37.593L306.632,37.777C306.632,37.846 306.655,37.892 306.701,37.938C306.742,37.983 306.801,38.009 306.862,38.007L308.106,38.007C308.167,38.009 308.226,37.983 308.267,37.938C308.312,37.897 308.338,37.838 308.336,37.777L308.336,33.817L308.29,33.817ZM300.37,35.567C300.37,35.866 300.255,36.119 300.048,36.28C299.841,36.441 299.426,36.534 298.874,36.534L297.953,36.534L297.953,34.462L299.196,34.462C299.633,34.462 299.956,34.554 300.117,34.761C300.278,34.968 300.37,35.198 300.37,35.452L300.37,35.567ZM300.324,32.274C300.324,32.39 300.301,32.505 300.278,32.62C300.232,32.735 300.186,32.827 300.094,32.896C299.99,32.975 299.873,33.038 299.749,33.08C299.569,33.131 299.383,33.155 299.196,33.149L297.953,33.149L297.953,31.238L298.805,31.238C299.38,31.238 299.772,31.307 300.002,31.446C300.232,31.584 300.347,31.814 300.347,32.113L300.324,32.274ZM302.212,35.452C302.212,35.06 302.12,34.738 301.936,34.462C301.751,34.185 301.521,33.955 301.222,33.817C301.521,33.679 301.751,33.449 301.913,33.172C302.074,32.873 302.166,32.551 302.166,32.205L302.166,31.998C302.166,31.561 302.074,31.192 301.913,30.893C301.751,30.594 301.498,30.364 301.199,30.179C300.9,29.995 300.531,29.88 300.094,29.788C299.622,29.712 299.144,29.673 298.666,29.673L298.114,29.673C297.93,29.673 297.746,29.696 297.561,29.696C297.377,29.696 297.216,29.719 297.055,29.742C296.894,29.765 296.779,29.765 296.687,29.788C296.479,29.834 296.318,29.88 296.226,29.995C296.134,30.087 296.088,30.271 296.088,30.525L296.088,37.27C296.088,37.524 296.134,37.685 296.226,37.8C296.318,37.892 296.479,37.961 296.687,38.007C296.802,38.03 296.94,38.053 297.078,38.053C297.239,38.076 297.4,38.076 297.584,38.099C297.769,38.122 297.953,38.122 298.137,38.122L298.713,38.122C299.196,38.122 299.656,38.076 300.071,38.007C300.46,37.943 300.834,37.811 301.176,37.616C301.498,37.431 301.728,37.178 301.936,36.856C302.12,36.534 302.212,36.119 302.212,35.636L302.212,35.452Z" style="fill:rgb(0,84,152);fill-rule:nonzero;"/>
            </g>
        </g>
        <g transform="matrix(0.148985,0,0,0.148985,114.216,66.2115)">
            <path d="M608.751,6.863C611.263,8.855 613.423,11.118 615.231,13.712C619.85,20.366 621.615,28.276 620.564,37.339L644.197,37.339L608.572,135.247L644.17,135.247L679.811,37.339L725.543,37.339L736.637,6.863L608.751,6.863Z" style="fill:rgb(244,114,22);fill-rule:nonzero;"/>
            <path d="M572.429,47.808C568.618,58.074 561.774,64.413 548.759,64.413L548.705,64.413L541.97,64.403L553.485,33.364L560.036,33.364C572.012,33.369 576.49,36.872 572.429,47.808M606.971,19.455C601.113,11.025 589.202,6.883 570.54,6.862L527.33,6.862L480.596,135.219L520.292,135.219L537.281,90.038C538.115,91.901 548.131,135.219 548.131,135.219L589.868,135.219C589.868,135.219 582.272,103.389 576.69,90.526C575.261,87.223 573.761,83.52 571.763,80.417C583.55,76.043 600.626,66.633 607.702,47.581C612.049,35.865 611.795,26.401 606.971,19.455M208.072,6.79L134.473,6.79C122.87,6.79 111.598,6.79 101.501,11.912C91.404,17.045 82.487,27.299 75.622,47.813C74.138,52.225 73.348,56.021 73.245,59.318C73.142,62.626 73.716,65.441 74.967,67.883C76.515,70.861 79.016,73.67 82.146,76.036C85.28,78.402 89.032,80.324 93.071,81.559C93.228,81.597 95.351,82.208 97.922,82.939C100.489,83.681 103.488,84.558 105.383,85.132C106.493,85.473 107.722,85.917 108.826,86.583C109.936,87.238 110.927,88.121 111.555,89.344C111.966,90.162 112.188,91.044 112.21,91.997C112.237,92.955 112.075,93.984 111.701,95.072C110.764,97.861 109.33,99.653 106.612,100.752C103.899,101.845 99.898,102.203 93.829,102.246L18.097,102.246L6.121,135.142L87.186,135.142C94.82,135.142 108.767,135.142 122.167,129.441C135.572,123.751 148.425,112.365 153.866,89.593C155.913,81.039 155.279,74.066 151.928,68.592C148.56,63.113 142.48,59.144 133.628,56.6C133.628,56.6 131.641,56.026 129.308,55.355C126.985,54.689 124.305,53.925 122.93,53.525C120.661,52.875 118.918,51.565 117.889,49.897C116.866,48.23 116.558,46.205 117.137,44.137C117.749,41.987 119.216,40.271 121.344,39.085C123.477,37.91 126.276,37.261 129.546,37.261L176.665,37.261C177,36.779 177.304,36.259 177.634,35.777C186.242,23.601 196.659,13.747 208.072,6.79" style="fill:rgb(244,114,22);fill-rule:nonzero;"/>
            <path d="M242.641,70.372C231.639,100.479 223.654,108.059 211.64,108.059L211.618,108.059C199.907,108.043 195.809,100.636 206.762,70.675C214.942,48.304 225.532,33.994 238.353,33.994L238.358,33.994C250.556,34.011 253.344,41.076 242.641,70.372M280.388,18.813C273.972,9.636 262.998,4.97 247.719,4.959C237.73,4.959 228.039,7.254 218.943,11.542C205.939,17.693 194.158,27.963 184.531,41.58C178.284,50.426 172.929,60.675 168.733,72.142C160.839,93.777 160.921,111.335 169.004,122.904C173.584,129.445 183.102,137.252 202.457,137.273L202.533,137.273C237.795,137.273 264.118,114.161 280.788,68.58C285.19,56.512 290.999,34.005 280.388,18.813M421.292,6.79L346.286,6.79C325.317,6.79 309.703,17.396 302.334,37.261L266.71,135.142L305.734,135.142L324.045,84.823L358.532,84.845L368.343,57.899L333.963,57.878L339.502,42.274C340.655,39.48 343.411,37.255 347.444,37.255C349.691,37.255 375.013,37.261 388.115,37.266C388.451,36.784 388.759,36.259 389.089,35.777C397.692,23.601 409.88,13.747 421.292,6.79" style="fill:rgb(244,114,22);fill-rule:nonzero;"/>
            <g>
                <clipPath id="_clip1">
                    <rect x="6.125" y="4.961" width="730.517" height="226.46"/>
                </clipPath>
                <g clip-path="url(#_clip1)">
                    <path d="M455.408,70.372C444.412,100.479 436.426,108.059 424.413,108.059L424.391,108.059C412.675,108.043 408.587,100.636 419.534,70.675C427.704,48.304 438.31,33.994 451.12,33.994L451.142,33.994C463.324,34.011 466.117,41.076 455.408,70.372M493.155,18.813C486.739,9.636 475.765,4.97 460.487,4.959C450.503,4.959 440.806,7.254 431.716,11.542C418.712,17.693 406.93,27.963 397.304,41.58C391.046,50.426 385.702,60.675 381.511,72.142C373.601,93.777 373.699,111.335 381.787,122.904C386.357,129.445 395.87,137.252 415.241,137.273L415.301,137.273C450.573,137.273 476.902,114.161 493.556,68.58C497.974,56.512 503.772,34.005 493.155,18.813" style="fill:rgb(244,114,22);fill-rule:nonzero;"/>
                    <path d="M51.173,184.38C51.638,183.097 51.86,181.943 51.839,180.931C51.812,179.908 51.53,179.063 50.989,178.392C50.442,177.72 49.641,177.206 48.569,176.843C47.502,176.481 45.964,176.297 43.967,176.297L37.416,176.297L31.395,192.853L38.634,192.853C40.496,192.853 42.077,192.625 43.355,192.181C44.638,191.737 45.786,191.137 46.798,190.362C47.81,189.597 48.7,188.685 49.44,187.655C50.16,186.645 50.743,185.544 51.173,184.38M44.541,211.667C45.077,210.183 45.315,208.862 45.244,207.698C45.179,206.534 44.811,205.554 44.145,204.775C43.479,203.984 42.483,203.372 41.168,202.95C39.836,202.522 38,202.311 35.629,202.311L27.952,202.311L21.352,220.432L30.708,220.432C32.516,220.432 34.102,220.248 35.467,219.869C36.814,219.498 38.099,218.933 39.283,218.191C40.464,217.444 41.519,216.514 42.407,215.435C43.329,214.31 44.051,213.036 44.541,211.667M58.152,211.223C57.323,213.486 56.262,215.543 54.968,217.384C53.716,219.175 52.252,220.809 50.61,222.251C49,223.663 47.234,224.888 45.347,225.9C43.439,226.922 41.44,227.763 39.375,228.412C37.284,229.073 35.142,229.559 32.971,229.863C30.767,230.177 28.39,230.334 25.824,230.334L8.883,230.334C7.801,230.334 7.005,230.015 6.496,229.371C5.992,228.726 5.998,227.692 6.523,226.247L26.75,170.682C27.275,169.237 28.022,168.197 28.997,167.553C29.971,166.914 31,166.594 32.077,166.594L48.087,166.594C51.996,166.594 55.185,166.919 57.659,167.58C60.122,168.24 62.05,169.231 63.419,170.563C64.789,171.884 65.596,173.573 65.84,175.609C66.089,177.645 65.704,180.043 64.697,182.799C64.143,184.331 63.413,185.794 62.521,187.157C61.642,188.511 60.61,189.759 59.445,190.877C57.068,193.165 54.202,194.883 51.064,195.901C52.754,196.226 54.21,196.805 55.439,197.623C56.643,198.419 57.619,199.514 58.271,200.801C58.931,202.1 59.272,203.621 59.294,205.359C59.321,207.103 58.937,209.057 58.152,211.223" style="fill:rgb(47,46,52);fill-rule:nonzero;"/>
                </g>
            </g>
            <path d="M107.773,178.763L107.724,178.763L88.846,205.849L106.923,205.849L107.773,178.763ZM120.014,225.508C119.982,226.688 119.89,227.625 119.733,228.312C119.581,229 119.262,229.52 118.775,229.866C118.287,230.213 117.567,230.424 116.62,230.51C115.667,230.586 114.389,230.63 112.781,230.63C111.108,230.63 109.809,230.602 108.894,230.554C107.974,230.51 107.302,230.408 106.858,230.261C106.42,230.115 106.149,229.904 106.046,229.644C105.949,229.384 105.905,229.038 105.932,228.605L106.311,215.806L82.37,215.806L73.789,228.264C73.491,228.724 73.183,229.108 72.852,229.422C72.528,229.736 72.094,229.985 71.553,230.159C71.012,230.337 70.292,230.462 69.393,230.532C68.505,230.597 67.346,230.63 65.939,230.63C64.428,230.63 63.264,230.581 62.447,230.483C61.629,230.386 61.125,230.142 60.936,229.763C60.741,229.39 60.822,228.859 61.169,228.172C61.521,227.473 62.1,226.553 62.918,225.405L103.144,168.86C103.55,168.303 103.945,167.853 104.33,167.512C104.72,167.16 105.234,166.9 105.878,166.716C106.517,166.538 107.351,166.424 108.39,166.375C109.744,166.314 111.1,166.287 112.456,166.294C114.395,166.294 115.927,166.321 117.058,166.375C118.19,166.424 119.045,166.538 119.619,166.716C120.193,166.9 120.55,167.166 120.702,167.528C120.848,167.891 120.908,168.384 120.875,169.006L120.014,225.508ZM186.019,225.804C185.756,226.535 185.374,227.218 184.888,227.824C184.434,228.393 183.897,228.891 183.296,229.302C182.719,229.691 182.08,229.98 181.406,230.157C180.771,230.334 180.116,230.425 179.457,230.428L173.94,230.428C172.798,230.428 171.84,230.314 171.087,230.087C170.354,229.868 169.706,229.429 169.23,228.831C168.748,228.225 168.364,227.402 168.082,226.368C167.801,225.339 167.552,223.996 167.33,222.356L162.311,192.557C162.02,190.651 161.781,188.737 161.596,186.818C161.391,184.828 161.263,182.83 161.212,180.83L161.114,180.83C160.381,183.195 159.621,185.553 158.835,187.901C158.018,190.334 157.168,192.756 156.285,195.166L144.147,228.512C144.033,228.842 143.833,229.134 143.557,229.399C143.28,229.665 142.885,229.881 142.382,230.06C141.867,230.244 141.223,230.385 140.427,230.482C139.637,230.58 138.651,230.634 137.466,230.634C136.318,230.634 135.387,230.58 134.661,230.482C133.947,230.385 133.405,230.244 133.048,230.06C132.685,229.881 132.468,229.665 132.398,229.399C132.333,229.134 132.36,228.842 132.479,228.512L153.329,171.225C153.892,169.682 154.764,168.529 155.944,167.749C157.13,166.98 158.38,166.596 159.696,166.596L166.637,166.596C167.887,166.596 168.894,166.704 169.674,166.916C170.448,167.127 171.087,167.484 171.574,167.977C172.072,168.464 172.451,169.152 172.728,170.018C173.004,170.889 173.226,171.961 173.377,173.239L177.313,196.541C177.519,197.954 177.73,199.346 177.941,200.705C178.152,202.069 178.337,203.434 178.499,204.798C178.661,206.151 178.813,207.494 178.954,208.81C179.105,210.12 179.23,211.436 179.344,212.746L179.392,212.746C180.167,210.341 180.966,207.944 181.791,205.556C182.652,203.06 183.491,200.678 184.314,198.42L195.201,168.518C195.315,168.182 195.521,167.89 195.819,167.625C196.106,167.37 196.517,167.138 197.053,166.943C197.584,166.742 198.244,166.596 199.029,166.52C199.814,166.434 200.8,166.396 201.98,166.396C203.095,166.396 204.021,166.434 204.741,166.52C205.472,166.596 205.997,166.742 206.338,166.943C206.674,167.138 206.88,167.37 206.95,167.625C207.02,167.89 206.988,168.182 206.869,168.518L186.019,225.804ZM250.147,228.415C250.017,228.772 249.806,229.097 249.524,229.373C249.243,229.654 248.815,229.882 248.241,230.061C247.667,230.245 246.915,230.385 245.994,230.483C245.074,230.58 243.942,230.634 242.594,230.634C240.456,230.634 238.95,230.548 238.079,230.385C237.202,230.218 236.617,229.974 236.33,229.644C236.034,229.313 235.846,228.899 235.794,228.458L227.548,198.215L216.536,228.458C216.406,228.826 216.19,229.129 215.897,229.4C215.605,229.665 215.183,229.882 214.62,230.061C214.067,230.245 213.358,230.385 212.503,230.483C211.642,230.58 210.575,230.634 209.292,230.634C208.047,230.634 207.018,230.58 206.217,230.483C205.421,230.385 204.804,230.245 204.376,230.061C203.948,229.882 203.678,229.665 203.559,229.4C203.44,229.129 203.45,228.826 203.58,228.458L225.437,168.421C225.567,168.053 225.789,167.744 226.092,167.485C226.406,167.219 226.834,167.008 227.391,166.84C227.944,166.678 228.653,166.548 229.53,166.445C230.586,166.336 231.647,166.286 232.708,166.293C233.986,166.293 235.025,166.348 235.81,166.445C236.59,166.548 237.207,166.678 237.635,166.84C238.068,167.008 238.333,167.219 238.431,167.485C238.534,167.744 238.523,168.053 238.393,168.421L228.512,195.562L257.039,168.464C257.429,168.037 257.835,167.685 258.268,167.409C258.69,167.127 259.199,166.905 259.789,166.743C260.49,166.556 261.209,166.44 261.933,166.396C262.772,166.326 263.839,166.293 265.122,166.293C266.432,166.293 267.499,166.348 268.316,166.445C269.139,166.548 269.767,166.689 270.211,166.867C270.655,167.046 270.926,167.268 271.029,167.528C271.132,167.793 271.116,168.091 270.996,168.421C270.791,168.979 270.439,169.553 269.93,170.143C269.416,170.728 268.517,171.664 267.234,172.942L241.408,195.854L249.984,224.668C250.217,226.016 250.325,226.915 250.309,227.353C250.298,227.803 250.244,228.155 250.147,228.415M276.104,228.56C275.972,228.908 275.749,229.215 275.459,229.448C275.151,229.713 274.723,229.925 274.171,230.087C273.613,230.255 272.915,230.385 272.054,230.482C271.198,230.58 270.126,230.634 268.849,230.634C267.598,230.634 266.575,230.58 265.773,230.482C264.972,230.385 264.35,230.255 263.922,230.087C263.489,229.925 263.213,229.713 263.093,229.448C262.974,229.188 262.98,228.885 263.099,228.56L285.01,168.367C285.14,168.021 285.361,167.716 285.649,167.484C285.963,167.219 286.396,167.008 286.97,166.84C287.543,166.677 288.247,166.547 289.108,166.445C289.964,166.347 291.014,166.293 292.265,166.293C293.542,166.293 294.576,166.347 295.367,166.445C296.146,166.547 296.758,166.677 297.186,166.84C297.619,167.008 297.901,167.219 298.009,167.484C298.133,167.744 298.133,168.036 298.009,168.367L276.104,228.56ZM348.185,225.804C347.922,226.535 347.54,227.218 347.053,227.824C346.596,228.391 346.061,228.888 345.462,229.302C344.884,229.693 344.243,229.982 343.567,230.157C342.936,230.333 342.284,230.425 341.629,230.428L336.106,230.428C334.958,230.428 334.006,230.314 333.253,230.087C332.52,229.869 331.871,229.43 331.396,228.831C330.914,228.225 330.524,227.402 330.248,226.368C329.967,225.339 329.718,223.996 329.49,222.356L324.477,192.557C324.188,190.651 323.949,188.737 323.762,186.818C323.557,184.828 323.428,182.83 323.378,180.83L323.28,180.83C322.549,183.196 321.789,185.553 321.001,187.901C320.178,190.332 319.328,192.754 318.451,195.166L306.312,228.512C306.199,228.842 305.998,229.134 305.722,229.399C305.441,229.665 305.051,229.881 304.542,230.06C304.039,230.244 303.383,230.385 302.598,230.482C301.797,230.58 300.817,230.634 299.631,230.634C298.484,230.634 297.552,230.58 296.827,230.482C296.107,230.385 295.571,230.244 295.208,230.06C294.845,229.881 294.64,229.665 294.564,229.399C294.499,229.134 294.526,228.842 294.645,228.512L315.495,171.225C316.052,169.682 316.929,168.529 318.115,167.749C319.295,166.98 320.541,166.596 321.856,166.596L328.803,166.596C330.048,166.596 331.066,166.704 331.84,166.916C332.614,167.127 333.248,167.484 333.74,167.977C334.238,168.464 334.623,169.152 334.893,170.018C335.17,170.889 335.386,171.961 335.543,173.239L339.479,196.541C339.685,197.954 339.896,199.346 340.107,200.705C340.313,202.069 340.502,203.434 340.665,204.798C340.822,206.151 340.979,207.494 341.12,208.81C341.271,210.12 341.396,211.436 341.515,212.746L341.558,212.746C342.329,210.34 343.129,207.943 343.957,205.556C344.812,203.06 345.657,200.678 346.48,198.42L357.367,168.518C357.49,168.171 357.703,167.863 357.984,167.625C358.271,167.37 358.683,167.138 359.219,166.943C359.749,166.742 360.41,166.596 361.195,166.52C361.98,166.434 362.96,166.396 364.146,166.396C365.256,166.396 366.176,166.434 366.907,166.52C367.632,166.596 368.163,166.742 368.504,166.943C368.84,167.138 369.045,167.37 369.116,167.625C369.186,167.89 369.159,168.182 369.035,168.518L348.185,225.804ZM435.809,176.495C435.463,177.448 435.127,178.271 434.791,178.953C434.456,179.646 434.147,180.198 433.844,180.61C433.552,181.021 433.27,181.303 432.994,181.471C432.737,181.631 432.441,181.718 432.138,181.72C431.711,181.72 431.131,181.417 430.39,180.826C429.653,180.242 428.619,179.603 427.304,178.91C425.972,178.217 424.321,177.578 422.361,176.982C420.39,176.392 417.964,176.1 415.073,176.1C411.982,176.1 408.993,176.636 406.118,177.703C403.212,178.781 400.493,180.31 398.062,182.234C395.577,184.189 393.357,186.538 391.408,189.278C389.465,192.023 387.884,195.049 386.671,198.363C385.345,202.012 384.657,205.222 384.619,207.994C384.581,210.777 385.09,213.094 386.151,214.962C387.207,216.841 388.788,218.249 390.883,219.201C392.984,220.154 395.512,220.631 398.468,220.631C401.554,220.615 404.601,219.943 407.407,218.66L412.789,203.885L400.726,203.885C400.13,203.885 399.8,203.517 399.746,202.77C399.686,202.039 399.984,200.783 400.628,199.007C400.964,198.087 401.284,197.318 401.592,196.69C401.843,196.158 402.152,195.655 402.513,195.19C402.816,194.811 403.108,194.535 403.4,194.351C403.698,194.172 403.991,194.08 404.288,194.08L425.815,194.08C426.34,194.08 426.779,194.172 427.12,194.351C427.466,194.535 427.726,194.8 427.905,195.168C428.083,195.526 428.17,195.964 428.148,196.468C428.127,196.982 427.997,197.561 427.753,198.217L418.522,223.587C418.19,224.527 417.697,225.403 417.066,226.175C416.454,226.917 415.539,227.496 414.31,227.924C413.086,228.351 411.608,228.79 409.865,229.25C408.104,229.717 406.325,230.11 404.532,230.43C401.008,231.078 397.433,231.41 393.85,231.421C388.766,231.421 384.473,230.685 380.986,229.228C377.494,227.767 374.857,225.65 373.076,222.878C371.295,220.1 370.391,216.716 370.369,212.726C370.337,208.731 371.252,204.21 373.087,199.153C374.982,193.929 377.489,189.251 380.569,185.087C383.655,180.935 387.174,177.405 391.127,174.497C395.045,171.607 399.396,169.355 404.018,167.827C408.668,166.284 413.509,165.51 418.527,165.51C421.289,165.51 423.73,165.7 425.864,166.084C427.986,166.457 429.794,166.912 431.288,167.459C432.788,167.995 433.979,168.58 434.873,169.202C435.755,169.836 436.34,170.366 436.616,170.832C436.892,171.292 436.979,171.937 436.876,172.776C436.762,173.615 436.405,174.855 435.809,176.495" style="fill:rgb(47,46,52);fill-rule:nonzero;"/>
        </g>
    </g>
    <g transform="matrix(1,0,0,1,5.07412,-9.76996e-15)">
        <g transform="matrix(1,0,0,1,10,5)">
            <rect x="76.383" y="5.862" width="15.802" height="28.398" style="fill:rgb(255,95,0);"/>
        </g>
        <g transform="matrix(1,0,0,1,10,5)">
            <path d="M77.386,20.064C77.382,14.526 79.928,9.283 84.284,5.862C81.102,3.362 77.171,2.002 73.125,2.002C63.218,2.002 55.066,10.154 55.066,20.061C55.066,29.968 63.218,38.12 73.125,38.12C77.171,38.12 81.102,36.76 84.284,34.26C79.93,30.84 77.384,25.6 77.386,20.064Z" style="fill:rgb(235,0,27);fill-rule:nonzero;"/>
        </g>
        <g transform="matrix(1,0,0,1,10,5)">
            <path d="M113.504,20.064C113.504,29.97 105.352,38.122 95.445,38.122C91.398,38.121 87.466,36.761 84.284,34.26C88.636,30.837 91.182,25.598 91.184,20.061C91.182,14.524 88.636,9.285 84.284,5.862C87.466,3.361 91.398,2.001 95.445,2C105.352,2 113.504,10.152 113.504,20.059L113.504,20.064ZM111.779,31.25L111.779,30.668L112.014,30.668L112.014,30.548L111.417,30.548L111.417,30.668L111.673,30.668L111.673,31.25L111.779,31.25ZM112.937,31.25L112.937,30.548L112.757,30.548L112.546,31.049L112.335,30.548L112.175,30.548L112.175,31.25L112.305,31.25L112.305,30.723L112.501,31.18L112.636,31.18L112.832,30.723L112.832,31.255L112.937,31.25Z" style="fill:rgb(247,158,27);fill-rule:nonzero;"/>
        </g>
    </g>
    <g transform="matrix(1,0,0,1,34.2039,5)">
        <g>
            <path d="M280.189,9.269L264.756,35.718C263.861,37.227 262.295,38.122 260.506,38.122C258.769,38.119 257.163,37.177 256.312,35.662L241.662,9.213C240.823,7.703 240.879,5.914 241.718,4.404C242.613,2.951 244.178,2 245.856,2L275.995,2C277.728,2 279.35,2.951 280.189,4.404C281.083,5.914 281.027,7.759 280.189,9.269Z" style="fill:rgb(38,53,140);fill-rule:nonzero;"/>
            <path d="M257.99,5.299C257.098,4.794 255.95,5.093 255.418,5.97C254.886,6.847 252.901,10.276 251.224,13.183L247.03,5.914C246.527,5.019 245.353,4.74 244.514,5.243C243.619,5.746 243.34,6.921 243.843,7.815L249.602,17.88C249.938,18.439 250.553,18.831 251.224,18.831C251.895,18.831 252.51,18.495 252.845,17.88L258.661,7.871C259.164,6.977 258.884,5.802 257.99,5.299ZM267.607,21.85C266.715,21.345 265.567,21.645 265.035,22.521C264.503,23.397 262.519,26.827 260.841,29.735L256.648,22.465C256.144,21.571 254.97,21.291 254.131,21.794C253.237,22.298 252.957,23.472 253.46,24.367L259.22,34.432C259.555,34.991 260.17,35.382 260.841,35.382C261.512,35.382 262.128,35.047 262.463,34.432L268.278,24.423C268.838,23.528 268.502,22.354 267.607,21.85ZM277.281,5.187C276.389,4.682 275.241,4.982 274.709,5.858C274.177,6.734 272.193,10.164 270.515,13.071L266.321,5.802C265.818,4.908 264.644,4.628 263.805,5.131C262.91,5.635 262.631,6.809 263.134,7.703L268.893,17.768C269.229,18.328 269.844,18.719 270.515,18.719C271.186,18.719 271.801,18.384 272.137,17.768L277.952,7.759C278.455,6.865 278.176,5.69 277.281,5.187Z" style="fill:white;fill-rule:nonzero;"/>
        </g>
    </g>
    <g>
        <g transform="matrix(1,0,0,1,10,5)">
            <path d="M0,2L21.499,2C36.091,2 41.684,9.969 41.684,20.021C41.684,32.074 33.873,38.122 21.499,38.122L0,38.122L0,2ZM2.084,4.084L2.084,36.039L21.499,36.039C33.22,36.039 39.598,30.577 39.598,20.021C39.598,9.171 32.685,4.084 21.499,4.084L2.084,4.084Z" style="fill-rule:nonzero;"/>
        </g>
        <g transform="matrix(1,0,0,1,10,5)">
            <rect x="4.689" y="22.37" width="6.215" height="11.061"/>
        </g>
        <g transform="matrix(1,0,0,1,10,5)">
            <circle cx="7.796" cy="16.797" r="3.863"/>
        </g>
        <g transform="matrix(1,0,0,1,10,5)">
            <path d="M23.937,18.604L23.937,20.395L19.509,20.395L19.509,13.208L23.796,13.208L23.796,14.998L21.299,14.998L21.299,15.831L23.66,15.831L23.66,17.622L21.299,17.622L21.299,18.605L23.937,18.604ZM24.712,20.396L26.879,13.205L29.427,13.205L31.593,20.396L29.729,20.396L29.323,19.006L26.98,19.006L26.573,20.396L24.712,20.396ZM27.506,17.216L28.802,17.216L28.207,15.185L28.099,15.185L27.506,17.216ZM32.493,13.206L34.285,13.206L34.285,18.605L36.937,18.605C36.209,8.809 28.505,6.692 21.5,6.692L14.034,6.692L14.034,13.21L15.139,13.21C17.153,13.21 18.404,14.576 18.404,16.774C18.404,19.042 17.183,20.396 15.139,20.396L14.034,20.396L14.034,33.437L21.5,33.437C32.884,33.437 36.848,28.15 36.989,20.395L32.493,20.395L32.493,13.206ZM14.032,15L14.032,18.605L15.139,18.605C15.905,18.605 16.614,18.383 16.614,16.774C16.614,15.202 15.825,15 15.139,15L14.032,15Z" style="fill:rgb(213,0,114);fill-rule:nonzero;"/>
        </g>
    </g>
    <g transform="matrix(1,0,0,1,66.8705,5.00002)">
        <g>
            <path d="M486.772,15.507C486.885,15.451 486.941,15.395 487.054,15.339C489.136,13.256 491.163,11.229 493.189,9.147C493.414,8.922 493.414,8.809 493.189,8.584C491.163,6.557 489.08,4.531 487.054,2.448C486.941,2.336 486.828,2.28 486.716,2.223C486.828,2.054 486.885,2.111 486.997,2.111L492.626,2.111C492.795,2.111 493.02,2.167 493.133,2.336C495.239,4.451 497.359,6.553 499.493,8.64C499.662,8.809 499.662,8.922 499.493,9.09L493.133,15.451C493.076,15.564 492.964,15.62 492.795,15.62L486.772,15.62L486.772,15.507Z" style="fill:rgb(34,69,53);fill-rule:nonzero;"/>
            <path d="M476.021,15.564L476.302,15.226L482.438,9.09C482.663,8.922 482.663,8.809 482.438,8.584L476.302,2.448C476.19,2.336 476.077,2.223 476.021,2.111L481.931,2.111C482.1,2.111 482.269,2.167 482.438,2.336C484.521,4.475 486.66,6.557 488.742,8.64C488.911,8.809 488.911,8.922 488.742,9.09L484.689,13.143C483.958,13.931 483.17,14.663 482.438,15.451C482.325,15.564 482.156,15.676 482.044,15.676L476.19,15.676C476.134,15.564 476.077,15.564 476.021,15.564Z" style="fill:rgb(34,68,53);fill-rule:nonzero;"/>
            <path d="M453.899,10.216L445.456,10.216C445.231,10.216 445.118,10.273 445.175,10.498C445.231,10.892 445.287,11.229 445.4,11.623C446.019,13.425 447.764,13.706 449.115,13.2C449.509,13.087 449.847,12.806 450.072,12.468C450.358,12.072 450.821,11.84 451.31,11.849L453.731,11.849C453.956,11.849 454.012,11.905 453.956,12.13C453.34,14.369 451.42,16.02 449.115,16.295C447.989,16.464 446.841,16.407 445.738,16.127C443.88,15.62 442.473,14.213 441.91,12.355C441.234,10.329 441.234,8.134 441.854,6.107C442.642,3.63 444.556,2.223 447.257,2.054C448.552,1.942 449.903,2.167 451.085,2.786C452.774,3.63 453.618,5.15 454.012,6.895C454.237,7.908 454.293,8.978 454.237,9.991C454.237,10.216 454.125,10.216 453.899,10.216ZM445.569,7.852L450.297,7.852C450.466,7.852 450.522,7.852 450.522,7.627C450.353,5.375 448.777,4.756 447.145,5.15C446.019,5.432 445.456,6.276 445.287,7.571C445.287,7.852 445.344,7.852 445.569,7.852ZM425.868,9.372C425.859,10.525 425.649,11.668 425.248,12.749C424.573,14.719 422.772,16.127 420.689,16.408C419.299,16.637 417.872,16.461 416.58,15.901C415.099,15.278 413.979,14.014 413.54,12.468C412.921,10.273 412.921,7.908 413.709,5.769C414.385,3.63 416.299,2.167 418.55,2.054C419.62,1.942 420.689,1.998 421.702,2.28C423.729,2.899 424.854,4.362 425.474,6.276C425.755,7.346 425.924,8.359 425.868,9.372ZM422.321,8.865C422.321,8.302 422.265,7.74 422.096,7.233C421.871,6.389 421.252,5.657 420.464,5.263C419.113,4.756 417.593,5.432 417.087,6.783C417.087,6.839 417.03,6.839 417.03,6.895C416.524,8.584 416.58,10.441 417.255,12.074C417.706,13.031 418.775,13.594 419.845,13.481C420.858,13.312 421.702,12.637 421.984,11.68C422.209,10.779 422.378,9.822 422.321,8.865Z" style="fill:rgb(33,68,53);fill-rule:nonzero;"/>
            <path d="M427.106,2.336L430.765,2.336C430.99,2.336 430.99,2.505 430.99,2.617C431.609,4.813 432.228,6.951 432.847,9.147L433.635,11.961C433.748,11.623 433.861,11.342 433.973,11.004C434.649,8.584 435.38,6.22 436.056,3.799C436.337,2.73 436.844,2.336 438.026,2.336L440.503,2.336C440.118,3.446 439.724,4.553 439.321,5.657C438.139,9.034 436.9,12.412 435.718,15.845C435.662,16.07 435.437,16.239 435.212,16.183L432.116,16.183C431.947,16.239 431.778,16.127 431.778,15.958L427.05,2.448C427.106,2.448 427.106,2.392 427.106,2.336ZM456.264,15.958L456.264,2.674C456.264,2.392 456.32,2.336 456.601,2.336L458.065,2.336C458.609,2.286 459.142,2.52 459.472,2.955C459.585,3.068 459.753,3.124 459.866,3.068C461.258,2.507 462.761,2.276 464.257,2.392C464.425,2.392 464.482,2.448 464.482,2.617L464.482,5.882C464.482,6.107 464.369,6.107 464.2,6.107L462.343,6.107C460.823,6.163 459.979,7.177 459.922,8.64C459.866,10.554 459.922,12.468 459.922,14.382L459.922,15.958C459.922,16.127 459.866,16.239 459.697,16.239L456.489,16.239C456.207,16.239 456.264,16.07 456.264,15.958Z" style="fill:rgb(34,68,53);fill-rule:nonzero;"/>
            <path d="M496.454,35.321C496.06,35.884 495.553,36.391 494.934,36.728C492.851,37.685 490.375,37.179 488.855,35.49C487.729,34.308 487.11,32.732 486.997,31.099C486.828,29.58 486.997,28.06 487.504,26.596C488.348,24.232 489.981,22.994 492.57,22.825C494.21,22.708 495.85,23.059 497.298,23.838C498.694,24.506 499.652,25.847 499.831,27.384C499.944,27.947 500,28.51 500,29.073L500,36.897C500,37.685 499.887,38.417 499.662,39.149C499.318,40.274 498.551,41.222 497.523,41.794C495.497,42.976 493.076,43.201 490.881,42.526C488.911,41.963 487.898,40.5 487.335,38.586C487.279,38.417 487.335,38.361 487.504,38.361L490.881,38.361C490.994,38.361 491.106,38.417 491.219,38.53C491.782,39.374 492.795,39.88 493.865,39.712C494.934,39.599 495.835,38.811 496.172,37.798C496.398,36.953 496.51,36.109 496.454,35.321ZM490.6,30.199C490.6,30.705 490.656,31.212 490.712,31.775C490.938,33.238 491.669,33.97 492.908,34.195C494.259,34.42 495.497,33.858 496.003,32.675C496.735,31.043 496.679,29.129 495.947,27.497C495.328,26.259 494.54,25.808 493.133,25.921C492.232,25.977 491.444,26.484 491.106,27.328C490.769,28.229 490.543,29.186 490.6,30.199Z" style="fill:rgb(107,138,45);fill-rule:nonzero;"/>
            <path d="M416.861,24.739C417.537,23.838 418.438,23.219 419.507,22.938C421.695,22.371 424.009,23.343 425.136,25.302C425.811,26.427 426.262,27.722 426.318,29.017C426.431,30.48 426.318,31.887 425.868,33.295C425.305,35.434 423.447,36.953 421.196,37.122C419.226,37.404 417.255,37.01 415.51,35.997C414.321,35.256 413.533,34.011 413.372,32.619C413.249,32.027 413.211,31.421 413.259,30.818L413.259,19.335C413.259,19.054 413.315,18.941 413.597,18.941L414.948,18.941C415.905,18.885 416.749,19.616 416.805,20.573L416.805,24.232L416.861,24.739ZM416.861,30.255C416.861,30.987 416.974,31.719 417.255,32.45C417.593,33.407 418.494,34.083 419.507,34.195C420.616,34.368 421.715,33.795 422.209,32.788C422.547,32.169 422.715,31.493 422.772,30.818C422.941,29.667 422.765,28.491 422.265,27.441C421.815,26.484 420.858,25.921 419.788,25.977C418.719,25.977 417.762,26.596 417.368,27.553C416.979,28.398 416.805,29.326 416.861,30.255ZM467.409,37.01L463.3,37.01C463.075,37.01 463.018,36.897 462.962,36.728C462.174,35.321 461.386,33.858 460.598,32.45C460.373,32.056 460.148,31.662 459.81,31.325C459.634,31.109 459.331,31.039 459.078,31.156C458.806,31.269 458.628,31.536 458.628,31.831L458.628,36.616C458.628,36.897 458.571,37.01 458.29,36.953L455.25,36.953C455.025,36.953 454.969,36.897 454.969,36.672L454.969,19.335C454.969,19.11 455.025,19.054 455.25,19.054L456.826,19.054C457.783,18.997 458.628,19.785 458.628,20.742L458.628,28.172L459.922,26.709L462.849,23.332C462.962,23.219 463.018,23.106 463.187,23.106L467.465,23.106L466.17,24.514C465.045,25.752 463.863,26.99 462.737,28.172C462.568,28.285 462.568,28.51 462.681,28.679C464.257,31.325 465.776,33.97 467.296,36.616C467.352,36.728 467.409,36.841 467.409,37.01ZM449.171,30.987L445.062,30.987C444.724,30.987 444.668,31.099 444.724,31.381C444.781,32.113 445.006,32.788 445.456,33.351C446.357,34.589 448.89,34.477 449.622,33.295C449.847,32.901 450.297,32.732 450.747,32.732L453.28,32.732C453.505,32.732 453.562,32.788 453.505,33.013C452.943,35.04 451.366,36.559 449.284,37.01C447.973,37.347 446.598,37.347 445.287,37.01C443.486,36.503 442.023,35.152 441.46,33.295C440.728,31.156 440.728,28.904 441.403,26.765C442.079,24.401 444.218,22.825 446.638,22.769C447.807,22.656 448.986,22.829 450.072,23.275C451.986,24.063 452.943,25.583 453.449,27.497C453.674,28.51 453.787,29.58 453.731,30.593C453.731,30.874 453.674,30.987 453.393,30.931C451.986,30.987 450.578,30.987 449.171,30.987ZM444.95,28.623L449.678,28.623C449.79,28.623 449.959,28.623 449.959,28.398C449.911,27.718 449.655,27.07 449.227,26.54C448.439,25.808 447.257,25.639 446.3,26.033C445.35,26.433 444.728,27.367 444.724,28.398C444.724,28.623 444.837,28.623 444.95,28.623Z" style="fill:rgb(108,138,46);fill-rule:nonzero;"/>
            <path d="M440.052,29.974C440.109,31.212 439.884,32.45 439.433,33.632C438.814,35.321 437.351,36.616 435.606,37.01C434.034,37.406 432.376,37.288 430.877,36.672C429.51,36.158 428.438,35.066 427.95,33.689C427.05,31.325 427.05,28.679 428.007,26.315C428.738,24.345 430.483,23.05 432.566,22.881C433.795,22.71 435.048,22.826 436.225,23.219C438.139,23.894 439.152,25.358 439.715,27.159C439.94,28.06 440.109,29.017 440.052,29.974ZM436.506,29.917L436.506,29.692C436.563,28.614 436.222,27.552 435.549,26.709C434.592,25.696 432.96,25.639 431.891,26.596C431.778,26.709 431.665,26.821 431.609,26.934C431.215,27.553 430.934,28.285 430.934,29.017C430.821,30.311 430.934,31.606 431.384,32.788C431.891,33.914 433.129,34.533 434.311,34.195C435.212,33.97 435.943,33.238 436.225,32.338C436.394,31.55 436.506,30.762 436.506,29.917ZM477.71,32.281L477.71,36.616C477.71,36.897 477.653,37.01 477.372,37.01L474.332,37.01C474.107,37.01 474.051,36.953 474.051,36.728L474.051,28.285C474.051,27.384 474.22,26.484 474.614,25.639C474.895,24.964 475.402,24.401 476.021,24.007C478.385,22.487 481.425,22.431 483.845,23.782C485.14,24.457 485.703,25.639 485.984,26.99C486.097,27.609 486.153,28.172 486.153,28.792L486.153,36.616C486.153,36.897 486.097,37.01 485.815,36.953C485.252,36.897 484.633,36.953 484.07,36.897C483.17,36.841 482.494,36.109 482.55,35.208L482.55,28.172C482.663,27.215 482.1,26.259 481.2,25.921C480.243,25.471 479.173,25.639 478.385,26.315C477.935,26.765 477.71,27.328 477.766,27.947C477.71,29.467 477.71,30.874 477.71,32.281Z" style="fill:rgb(107,138,45);fill-rule:nonzero;"/>
            <path d="M469.041,30.03L469.041,23.444C469.041,23.163 469.097,23.05 469.435,23.05L470.899,23.05C471.856,22.994 472.7,23.782 472.7,24.739L472.7,36.503C472.7,36.785 472.644,36.897 472.306,36.897L469.379,36.897C469.097,36.897 468.985,36.841 468.985,36.503C469.041,34.42 469.041,32.225 469.041,30.03Z" style="fill:rgb(108,138,46);fill-rule:nonzero;"/>
            <path d="M470.842,21.924L469.266,21.924C469.097,21.924 469.041,21.868 469.041,21.699L469.041,19.279C469.041,19.11 469.097,19.054 469.266,19.054L471.124,19.054C472.024,19.11 472.7,19.842 472.756,20.742L472.756,21.699C472.756,21.924 472.7,21.981 472.475,21.981C471.912,21.924 471.349,21.924 470.842,21.924Z" style="fill:rgb(109,139,46);fill-rule:nonzero;"/>
        </g>
    </g>
</svg>
