<svg viewBox="0 0 21.61 21.56" xmlns="http://www.w3.org/2000/svg"><g fill="#5C5C5C"><path d="M10.66 21.18A36.34 36.34 0 0 1 5.1 21a5.43 5.43 0 0 1-4.65-5.17 73.57 73.57 0 0 1 0-10.07A5.49 5.49 0 0 1 5.73.55a76.1 76.1 0 0 1 10.13 0 5.52 5.52 0 0 1 5.32 5.35 80 80 0 0 1 0 9.79 5.59 5.59 0 0 1-5.32 5.37c-1.69.14-3.38.09-5.2.12zm.12-1.87c1.52 0 3 0 4.55-.09a3.81 3.81 0 0 0 4-3.89c.15-3 .15-6 0-9a3.8 3.8 0 0 0-4-3.91q-4.54-.21-9.09 0a3.79 3.79 0 0 0-4 3.91c-.15 3-.14 6 0 9a3.82 3.82 0 0 0 4 3.94c1.55.03 3.05.03 4.54.04z"/><path d="M10.73 16.12a5.32 5.32 0 1 1 5.48-5.27 5.37 5.37 0 0 1-5.48 5.27zm-3.4-5.3a3.48 3.48 0 1 0 3.47-3.48 3.46 3.46 0 0 0-3.47 3.48zm7.83-5.56A1.26 1.26 0 0 1 16.39 4a1.26 1.26 0 1 1 0 2.51 1.25 1.25 0 0 1-1.23-1.25z"/></g></svg>