<svg width="29" height="29" xmlns="http://www.w3.org/2000/svg"><path d="M26.464 0H2.03C.91 0 0 .922 0 2.055v24.39C0 27.578.91 28.5 2.03 28.5h24.434a2.05 2.05 0 0 0 2.036-2.055V2.055A2.05 2.05 0 0 0 26.464 0zM10.081 24.429H4.39V10.827h5.7V24.43h-.01zM6.902 9.77a2.851 2.851 0 0 1 0-5.7c1.57 0 2.85 1.281 2.85 2.85a2.846 2.846 0 0 1-2.85 2.85zm17.546 14.66h-4.224v-6.616c0-1.578-.032-3.608-2.195-3.608-2.201 0-2.538 1.718-2.538 3.493v6.73h-4.225v-13.6h4.053v1.857h.057c.566-1.069 1.947-2.195 4.001-2.195 4.275 0 5.07 2.818 5.07 6.483v7.456z" fill="#5C5C5C"/></svg>