<svg width="29" height="29" xmlns="http://www.w3.org/2000/svg"><path d="M29 3.107v22.786A3.108 3.108 0 0 1 25.893 29H9.995c.634-1.062 1.45-2.59 1.773-3.839l.99-3.78c.519.99 2.033 1.825 3.645 1.825 4.797 0 8.247-4.408 8.247-9.884 0-5.25-4.285-9.18-9.8-9.18-6.862 0-10.5 4.603-10.5 9.62 0 2.33 1.243 5.23 3.224 6.156.304.142.46.078.53-.214.052-.22.324-1.3.44-1.8a.469.469 0 0 0-.11-.452c-.653-.796-1.184-2.26-1.184-3.625 0-3.509 2.654-6.9 7.179-6.9 3.903 0 6.641 2.66 6.641 6.466 0 4.298-2.168 7.276-4.997 7.276-1.56 0-2.725-1.288-2.356-2.874.446-1.89 1.314-3.93 1.314-5.295 0-3.431-4.887-2.958-4.887 1.618 0 1.405.472 2.363.472 2.363C8.583 25.077 8.28 25.187 8.7 28.948l.142.052H3.107A3.108 3.108 0 0 1 0 25.893V3.107A3.108 3.108 0 0 1 3.107 0h22.786A3.108 3.108 0 0 1 29 3.107z" fill="#5C5C5C"/></svg>