<svg width="29" height="29" xmlns="http://www.w3.org/2000/svg"><path d="M25.446 0H3.054A3.054 3.054 0 0 0 0 3.054v22.392A3.054 3.054 0 0 0 3.054 28.5h22.392a3.054 3.054 0 0 0 3.054-3.054V3.054A3.054 3.054 0 0 0 25.446 0zm-3.11 10.102c.012.178.012.363.012.541 0 5.515-4.198 11.87-11.87 11.87-2.367 0-4.562-.686-6.407-1.87.338.039.662.051 1.006.051a8.365 8.365 0 0 0 5.178-1.78 4.178 4.178 0 0 1-3.9-2.895c.643.095 1.222.095 1.883-.077a4.173 4.173 0 0 1-3.34-4.097v-.05a4.17 4.17 0 0 0 1.883.527A4.163 4.163 0 0 1 4.924 8.85c0-.776.203-1.489.566-2.106a11.847 11.847 0 0 0 8.601 4.364c-.592-2.83 1.527-5.127 4.071-5.127 1.203 0 2.284.502 3.048 1.317a8.176 8.176 0 0 0 2.646-1.005 4.161 4.161 0 0 1-1.832 2.296 8.303 8.303 0 0 0 2.405-.649 8.782 8.782 0 0 1-2.093 2.163z" fill="#5C5C5C"/></svg>