<svg clip-rule="evenodd" fill-rule="evenodd" stroke-linejoin="round" stroke-miterlimit="2" viewBox="0 0 120 23" xmlns="http://www.w3.org/2000/svg" xmlns:xlink="http://www.w3.org/1999/xlink"><radialGradient id="a" cx="6.4504" cy="9.06773" gradientUnits="userSpaceOnUse" r="14.1503"><stop offset="0" stop-color="#ffc429"/><stop offset="1" stop-color="#f26f23"/></radialGradient><path d="m36.071 7.64.077 8.695 1.953 2.412 5.861 3.103 7.2-3.524 1.494-3.562-.153-11.529-5.439-.153-5.669.919-5.17 2.987z" fill="#301506"/><path d="m44.462 1.357c-3.413 0-6.391.66-8.85 1.964v10.419c0 2.192.823 4.026 2.381 5.303 1.447 1.186 5.92 3.142 6.469 3.38.52-.227 5.047-2.212 6.47-3.38 1.558-1.277 2.382-3.11 2.382-5.303v-10.419c-2.46-1.304-5.437-1.965-8.852-1.965v.001zm5.054 2.018c1.018.012 2.018.076 2.984.165v10.2c0 1.96-.711 3.544-2.083 4.674-1.226 1.009-4.924 2.665-5.955 3.12-1.046-.46-4.751-2.137-5.955-3.12-1.365-1.111-2.083-2.731-2.083-4.674v-5.959c3.92-3.596 8.682-4.464 13.092-4.406zm-4.823 4.749c-.84 0-1.518.188-2.076.547v10.036h1.54v-3.243c.154.046.377.088.694.088 1.708 0 2.69-1.54 2.69-3.789 0-2.245-1.01-3.639-2.848-3.639zm5.263 0c-1.013.029-2.072.763-2.066 2.007.002.819.23 1.432 1.499 2.177.678.397.951.659.963 1.143.013.537-.359.861-.924.859-.491-.005-1.078-.277-1.472-.627v1.417c.512.307 1.096.471 1.692.478 1.523 0 2.202-1.075 2.231-2.06.029-.897-.219-1.577-1.506-2.333-.574-.337-1.028-.559-1.013-1.119.015-.547.47-.739.906-.735.538.004 1.059.302 1.38.632v-1.339c-.271-.209-.844-.526-1.69-.5zm-12.745.156v4.841c0 1.631.772 2.457 2.295 2.457.943 0 1.732-.218 2.321-.618v-6.68h-1.538v5.803c-.167.116-.415.189-.728.189-.706 0-.811-.647-.811-1.084v-4.908zm7.492 1.084c.893 0 1.264.713 1.264 2.438 0 1.683-.424 2.497-1.31 2.497-.208 0-.39-.051-.5-.094v-4.73c.125-.062.337-.111.546-.111z" fill="#fab80a" fill-rule="nonzero"/><path d="m99.742 17.896c-.932.261-2.147.369-3.188.369-2.711 0-4.489-1.41-4.489-3.99 0-2.451 1.67-4.033 4.098-4.033.543 0 1.128.064 1.476.237v-3.556h2.103zm-2.103-5.594c-.326-.152-.781-.239-1.301-.239-1.28 0-2.126.78-2.126 2.147 0 1.453.911 2.277 2.408 2.277.259 0 .671 0 1.019-.087zm19.388 5.594c-.934.261-2.148.369-3.21.369-2.69 0-4.489-1.41-4.489-3.99 0-2.451 1.669-4.033 4.098-4.033.564 0 1.128.064 1.475.237v-3.556h2.126zm-2.126-5.594c-.325-.152-.759-.239-1.28-.239-1.301 0-2.146.78-2.146 2.147 0 1.453.932 2.277 2.428 2.277.261 0 .651 0 .998-.087zm-11.841 0c.347-.152.846-.196 1.258-.196 1.301 0 2.191.737 2.191 2.061 0 1.561-.998 2.276-2.321 2.298v1.8h.108c2.733 0 4.359-1.496 4.359-4.164 0-2.429-1.735-3.859-4.293-3.859-1.302 0-2.581.303-3.427.65v10.301h2.125z" fill="#3f3f42"/><g fill="#dc0032"><path d="m84.821 5.513h.023zm-.52-.282.347.391.196-.109z"/><path d="m83.781 4.949.672.782.239-.13-.26-.304z"/><path d="m83.239 4.667 1.019 1.171.238-.13-.585-.693z"/><path d="m82.718 4.385 1.345 1.562.238-.13-.932-1.084zm2.581 2.755-.152.087.152.173z"/><path d="m82.197 4.103 1.671 1.953.239-.13-1.259-1.475zm3.015 3.081-.238.152.325.389v-.412z"/><path d="m81.656 3.822 2.017 2.343.259-.131-1.604-1.865zm3.361 3.469-.239.152.521.608v-.412z"/><path d="m81.135 3.54 2.364 2.732.238-.13-1.951-2.255zm3.686 3.882-.238.13.716.846v-.412z"/><path d="m80.615 3.258 2.689 3.123.239-.13-2.278-2.646zm4.011 4.272-.238.131.911 1.062v-.412z"/><path d="m80.073 2.977 3.036 3.513.238-.131-2.603-3.036zm4.359 4.662-.239.13 1.106 1.279v-.411z"/><path d="m79.552 2.695 3.361 3.925.239-.152-2.949-3.427zm4.684 5.052-.238.13 1.301 1.519v-.413z"/><path d="m79.01 2.413 3.708 4.314.239-.151-3.275-3.817zm5.053 5.442-.261.131 1.497 1.735v-.413z"/><path d="m78.489 2.131 4.034 4.705.26-.152-3.621-4.207zm5.379 5.833-.239.13 1.67 1.973v-.433z"/><path d="m77.969 1.849 4.38 5.096.239-.152-3.968-4.598zm5.704 6.224-.239.13 1.865 2.19v-.412z"/><path d="m77.427 1.545 4.727 5.509.239-.152-4.294-4.989zm6.05 6.635-.238.131 2.06 2.407v-.412z"/><path d="m76.906 1.263 5.053 5.898.238-.129-4.618-5.401zm6.376 7.026-.239.13 2.256 2.646v-.434z"/><path d="m76.385 1.003 5.379 6.267.238-.13-4.966-5.79zm6.702 7.395-.239.13 2.451 2.863v-.412z"/><path d="m76.039.916 5.53 6.463.239-.131-5.292-6.18-.131-.065c-.104-.062-.224-.092-.346-.087zm6.853 7.591-.238.13 2.645 3.079v-.412z"/><path d="m76.039.916c-.087 0-.174.022-.261.044l5.596 6.527.26-.13-5.53-6.441zm6.679 7.698-.239.13 2.82 3.319v-.434z"/><path d="m75.844.938c-.044.022-.109.043-.13.065l-.131.065 5.618 6.527.237-.129zm6.679 7.785-.239.152 3.015 3.513v-.412z"/><path d="m75.626 1.024-.237.13 5.616 6.55.239-.131zm6.702 7.808-.238.151 3.209 3.731v-.412z"/><path d="m75.432 1.133-.239.13 5.617 6.549.239-.13zm6.701 7.807-.239.152 3.405 3.968v-.412z"/><path d="m75.237 1.242-.239.13 5.617 6.549.238-.13zm6.701 7.806-.239.152 3.6 4.185v-.412z"/><path d="m75.041 1.35-.238.129 5.616 6.55.239-.13zm6.701 7.807-.238.151 3.795 4.403v-.412z"/><path d="m74.846 1.458-.239.13 5.617 6.549.239-.13zm6.723 7.807-.239.152 3.969 4.641v-.412z"/><path d="m74.651 1.545-.239.152 5.639 6.549.238-.13zm6.723 7.851-.239.13 4.164 4.857v-.412z"/><path d="m74.455 1.654-.237.129 5.637 6.572.239-.13zm6.723 7.85-.238.13 4.359 5.096v-.434z"/><path d="m74.261 1.761-.239.131 5.638 6.593.239-.152zm6.722 7.851-.239.13 4.555 5.314v-.412z"/><path d="m74.066 1.87-.239.13 5.639 6.593.238-.152zm6.722 7.851-.239.13 4.75 5.53v-.412z"/><path d="m73.87 1.979-.238.13 5.638 6.592.239-.151zm6.723 7.85-.238.131 4.944 5.768v-.434z"/><path d="m73.675 2.087-.239.13 5.639 6.593.239-.152zm6.744 7.851-.238.129 5.118 5.987v-.413z"/><path d="m73.48 2.174-.26.13 5.682 6.614.238-.152zm6.744 7.872-.238.13 5.313 6.203v-.413z"/><path d="m73.284 2.282-.26.131 5.704 6.635c.017-.038.048-.069.086-.086l.131-.087zm6.745 7.872-.238.131 5.464 6.376c.025-.063.04-.129.044-.196v-.174z"/><path d="m73.09 2.391-.261.13 5.834 6.787v-.086c.01-.079.04-.153.087-.217zm6.744 7.872-.174.108c-.021 0-.043.022-.064.022l5.551 6.484c.06-.077.105-.165.131-.26z"/><path d="m72.894 2.499-.26.13 6.029 7.027v-.434zm6.333 7.786 5.769 6.744c.064-.043.13-.13.194-.195l-5.551-6.463c-.097.044-.208.044-.304 0z"/><path d="m72.699 2.607-.261.131 12.362 14.399.174-.087.065-.064-5.682-6.615h-.022l-.499-.304c-.043-.021-.065-.064-.108-.107-.044-.066-.044-.109-.065-.152v-.239z"/><path d="m72.504 2.716-.26.13 12.361 14.4.239-.13-12.34-14.4z"/><path d="m72.308 2.802-.259.13 12.383 14.422.238-.129-12.362-14.423z"/><path d="m72.113 2.911-.26.13 12.383 14.422.239-.131z"/><path d="m71.919 3.02-.261.13 12.383 14.421.239-.13z"/><path d="m71.701 3.128-.238.13 12.383 14.443.238-.151z"/><path d="m71.506 3.236-.239.13 12.383 14.444.239-.152z"/><path d="m71.312 3.345-.239.13 12.404 14.443.239-.152z"/><path d="m71.116 3.432-.238.13 12.404 14.464.239-.151z"/><path d="m70.921 3.54-.239.13 12.405 14.465.238-.13z"/><path d="m70.726 3.648-.239.13 6.029 7.027.195.13c.086.044.174.151.174.26v.022l6.007 7.027.238-.13z"/><path d="m70.53 3.757-.238.13 5.66 6.614.715.391zm6.333 7.374c0 .021.022.043.022.064v.369l5.812 6.788.238-.131z"/><path d="m70.335 3.866-.239.13 5.293 6.18.715.391zm6.55 7.611v.412l5.638 6.571.238-.13z"/><path d="m70.14 3.974-.238.129 4.944 5.748.694.391zm6.745 7.828v.434l5.443 6.333.238-.13z"/><path d="m69.945 4.06-.238.131 4.575 5.335.694.412zm6.94 8.09v.412l5.248 6.116.239-.131z"/><path d="m69.75 4.169-.239.13 4.207 4.901.694.412zm7.135 8.306v.412l5.053 5.898.238-.13z"/><path d="m69.555 4.278-.239.13 3.838 4.488.694.391zm7.33 8.522v.434l4.857 5.682.239-.152z"/><path d="m69.359 4.385-.238.131 3.469 4.055.694.391zm7.526 8.763v.411l4.684 5.465.239-.152z"/><path d="m69.164 4.494-.239.13 3.102 3.622.715.391zm7.721 8.979v.412l4.489 5.248.238-.152z"/></g><path d="m68.969 4.603-.238.13 2.732 3.188.716.412zm5.682 7.026.563.651v-.239c0-.043-.043-.109-.086-.13zm2.234 2.169v.433l4.293 5.01.239-.152z" fill="#db0032"/><path d="m68.774 4.689-.239.13 2.364 2.776.716.412zm5.313 6.615 1.127 1.301v-.412l-.411-.477zm2.798 2.84v.413l4.098 4.792.239-.13z" fill="#dc0032"/><path d="m68.579 4.798-.239.13 2.017 2.363.694.391zm4.944 6.202 1.691 1.952v-.412l-.975-1.149zm3.362 3.47v.412l3.903 4.576.238-.13z" fill="#dc0032"/><path d="m68.383 4.906-.238.131 1.648 1.929.694.391zm4.598 5.769 2.233 2.602v-.411l-1.539-1.801zm3.904 4.142v.412l3.73 4.338.238-.131z" fill="#dc0032"/><path d="m68.188 5.015-.238.13 1.279 1.496.694.391zm4.229 5.334 2.797 3.254v-.412l-2.103-2.43zm4.468 4.793v.412l3.534 4.12.239-.129z" fill="#dc0032"/><path d="m67.993 5.123-.239.13.911 1.063.694.411zm3.86 4.901 3.361 3.925v-.412l-2.667-3.101zm5.032 5.444v.411l3.339 3.904.239-.13z" fill="#dc0032"/><path d="m67.797 5.231-.237.131.542.628.715.412zm3.492 4.49 3.925 4.554v-.412l-3.231-3.752zm5.596 6.094v.412l3.144 3.665.238-.131z" fill="#dc0032"/><path d="m67.603 5.319-.261.13.196.238.716.39zm3.123 4.077 4.488 5.226v-.434l-3.773-4.403zm6.159 6.744v.412l2.949 3.47.239-.152z" fill="#dc0032"/><path d="m67.408 5.427-.152.086.434.239zm2.754 3.644 5.052 5.876v-.412l-4.336-5.053zm6.723 7.394v.434l2.775 3.232.239-.152z" fill="#dc0032"/><path d="m69.62 8.744 5.594 6.528v-.412l-4.9-5.703zm7.265 8.068v.413l2.581 3.013.238-.151z" fill="#dc0032"/><path d="m69.056 8.441 6.158 7.179v-.434l-5.464-6.354zm7.829 8.696v.413l2.385 2.797.239-.152z" fill="#dc0032"/><path d="m68.492 8.116 6.722 7.829v-.412l-6.028-7.026zm8.393 9.347v.433l2.19 2.56.239-.131z" fill="#dc0032"/><path d="m67.928 7.791 7.286 8.479v-.412l-6.592-7.655zm8.957 10.019v.411l1.995 2.343.238-.13z" fill="#db0032"/><path d="m67.364 7.466 7.85 9.151v-.412l-7.156-8.328zm9.521 10.669v.412l1.821 2.125.239-.13z" fill="#da0032"/><path d="m66.801 7.161 8.413 9.782v-.413l-7.698-8.978zm10.084 11.299v.434l1.626 1.887.239-.13z" fill="#d90032"/><path d="m66.778 7.14v.303l8.436 9.825v-.413l-8.262-9.628zm10.107 11.667v.26c-.001.041-.017.079-.043.109l1.474 1.713.238-.13z" fill="#d80032"/><path d="m66.778 7.357v.434l8.436 9.823v-.412zm10.085 11.776c-.021.086-.087.173-.152.195l-.021.021 1.43 1.649.239-.13z" fill="#d70032"/><path d="m66.778 7.704v.412l8.436 9.824v-.412zm9.955 11.602c0 .022 0 .022-.022.022l-.217.13 1.431 1.648.239-.13z" fill="#d60032"/><path d="m66.778 8.029v.412l8.436 9.824v-.412zm9.782 11.386-.261.152 1.453 1.669.239-.152z" fill="#d50032"/><path d="m66.778 8.376v.413l8.436 9.823v-.412zm9.586 11.147-.152.087c-.043.021-.086.021-.13.021l1.475 1.714.238-.152z" fill="#d40032"/><path d="m66.778 8.701v.413l8.436 9.823v-.411zm8.914 10.822 1.669 1.93.239-.151-1.453-1.671c-.021 0-.065.022-.087.022h-.021c-.065 0-.109-.022-.152-.043z" fill="#d30032"/><path d="m66.778 9.026v.434l10.389 12.101.238-.152-1.561-1.821-.478-.26c-.093-.053-.151-.153-.152-.261v-.216z" fill="#d20032"/><path d="m66.778 9.374v.411l10.193 11.885.239-.13z" fill="#d10032"/><path d="m66.778 9.699v.412l9.998 11.667.239-.13z" fill="#d00032"/><path d="m66.778 10.024v.434l9.825 11.429.239-.13z" fill="#cf0032"/><path d="m66.778 10.371v.412l9.63 11.212.238-.13z" fill="#ce0032"/><path d="m66.778 10.697v.412l9.412 10.973.195-.065.066-.044z" fill="#cd0032"/><path d="m66.778 11.022v.434l9.13 10.626h.131c.065 0 .13 0 .195-.022z" fill="#cc0032"/><path d="m66.778 11.368v.413l8.632 10.062.304.174c.064.043.173.065.26.065z" fill="#cb0032"/><path d="m66.778 11.695v.411l8.068 9.412.716.412z" fill="#ca0032"/><path d="m66.778 12.041v.412l7.504 8.74.716.412z" fill="#c90032"/><path d="m66.778 12.366v.412l6.94 8.09.694.411z" fill="#c80033"/><path d="m66.778 12.691v.412l6.376 7.439.694.412z" fill="#c70033"/><path d="m66.778 13.039v.412l5.791 6.744.715.412z" fill="#c60033"/><path d="m66.778 13.364v.412l5.227 6.094.715.412z" fill="#c50033"/><path d="m66.778 13.689v.412l4.663 5.444.715.411z" fill="#c40033"/><path d="m66.778 14.037v.412l4.1 4.77.715.412z" fill="#c30033"/><path d="m66.778 14.362v.412l3.536 4.12.716.412z" fill="#c20033"/><path d="m66.778 14.687v.433l2.972 3.449.694.412z" fill="#c10033"/><path d="m66.778 15.034v.412l2.386 2.798.716.411z" fill="#c00033"/><path d="m66.778 15.359v.413l1.822 2.146.716.39z" fill="#bf0033"/><path d="m66.778 15.684v.434l1.258 1.453.716.412z" fill="#be0033"/><path d="m66.778 16.031v.412l.694.803.716.412z" fill="#bd0033"/><path d="m66.778 16.357v.108c0 .217.152.478.326.585l.52.282z" fill="#bc0033"/><path d="m66.908 16.855c.044.044.066.088.109.109z" fill="#b03"/><path d="m-10.431-10.097h43.191v43.191h-43.191z" fill="none"/><path d="m5.089.816c2.591 0 6.767 1.641 9.531 3.167 3.052 1.699 7.342 5.126 7.342 7.487 0 2.505-4.405 5.845-7.342 7.486-2.678 1.469-6.767 3.196-9.445 3.196-.719 0-1.295-.115-1.727-.345-2.102-1.181-3.081-6.191-3.081-10.337 0-2.102.259-4.319.748-6.162.576-2.189 1.383-3.628 2.333-4.175.403-.202.95-.317 1.641-.317" fill="#a6acb2" fill-rule="nonzero"/><path d="m21.243 11.527c0-1.785-3.369-4.923-6.969-6.91-4.175-2.275-8.897-3.6-10.452-2.764-1.756.979-2.735 5.873-2.735 9.674 0 3.83.921 8.667 2.735 9.675 1.67.922 6.191-.432 10.424-2.793 3.685-1.987 6.997-4.981 6.997-6.882" fill="url(#a)" fill-rule="nonzero"/><path d="m16.52 13.341-.029-1.814c0-.403-.143-.576-.46-.576-.115 0-.259.029-.375.116-.144.086-.23.144-.287.172l-.029.029v2.045s0 .028-.029.028h-.806s-.029 0-.029-.028v-2.88c0-.057.029-.086.086-.086h.72s.029 0 .029.029v.23s0 .029.029.029h.029l.028-.029c.087-.058.231-.144.317-.173.202-.086.403-.115.576-.115.662 0 1.008.374 1.008 1.094v1.929s0 .029-.029.029zm1.498 0c-.029 0-.029 0 0 0l-.029-4.434c0-.029 0-.029.029-.029.057 0 .489.288.633.432.115.115.173.288.173.432v3.542s0 .029-.029.029h-.777" fill="#fff" fill-rule="nonzero"/><path d="m9.178 11.844c0 1.065-.691 1.555-1.555 1.555s-1.555-.49-1.555-1.555.691-1.555 1.555-1.555 1.555.49 1.555 1.555m-.864 0c0-.576-.288-.806-.662-.806-.375 0-.663.259-.663.806 0 .518.288.806.663.806.374.029.662-.259.662-.806zm4.924-2.303c0-.029 0-.029-.029-.029-.058 0-.518.288-.634.432-.115.115-.172.288-.172.432v1.929c0 .835.489 1.094 1.008 1.094.287 0 .489-.029.604-.115.029 0 .058-.029.058-.087v-.547c0-.029 0-.029-.029-.029s-.23.087-.346.087c-.259 0-.431-.115-.431-.547v-1.094c0-.029 0-.029.028-.029h.72c.029 0 .029 0 .029-.029v-.576c0-.057-.029-.086-.086-.086h-.663c-.028 0-.028 0-.028-.029zm-10.395.921c0-.058.058-.086.086-.086h1.123c1.123 0 1.699.662 1.699 1.526 0 .863-.633 1.468-1.699 1.468h-.345c-.029 0-.029 0-.029.029v1.411c0 .029 0 .029-.029.029-.057 0-.518-.288-.633-.432-.115-.115-.173-.288-.173-.432zm2.073 1.382c0-.374-.23-.72-.864-.72h-.345c-.029 0-.029 0-.029.029v1.382c0 .029 0 .029.029.029h.345c.749 0 .864-.518.864-.72zm6.68-.115c-.172-.115-.403-.173-.604-.202-.029 0-.173-.028-.202-.057-.259-.058-.46-.115-.46-.259s.144-.231.345-.231c.259 0 .634.058 1.037.202.028 0 .057 0 .057-.029v-.576c0-.029-.029-.086-.057-.086-.144-.058-.576-.173-.922-.173-.403 0-.72.086-.95.259s-.345.403-.345.691c0 .662.547.778 1.065.893.086.029.057.029.086.029.231.057.49.115.49.288 0 .057-.029.115-.058.143-.057.058-.173.087-.345.087-.317 0-.951-.144-1.123-.202-.029 0-.029.029-.029.029v.576c0 .029.029.086.057.086 0 0 .548.173 1.037.173.893 0 1.353-.345 1.353-.979-.086-.288-.201-.518-.432-.662" fill="#383792" fill-rule="nonzero"/><path d="m6.327 9.598c-.057 0-.115-.029-.115-.115v-.346c0-.086.058-.144.144-.144h2.563c.086 0 .144.058.144.144v.317c0 .087-.029.115-.116.115h-2.62m2.304-.892c-.029 0-.058 0-.058-.029v-.058c.086-.259.374-1.065.374-1.065.029-.058 0-.115-.057-.144l-.144-.058h-.029c-.029 0-.058 0-.058.029-.057.144-.086.231-.143.374 0 .029-.029.029-.058.029h-.288c-.029 0-.029 0-.058-.029v-.057c.087-.259.144-.461.26-.691.028-.029.057-.115.172-.115h.058c.086.028.201.057.317.086.086.029.172.058.288.086.288.116.288.317.23.519-.029.115-.202.604-.317.892-.029.058-.029.116-.057.144 0 .029-.029.058-.087.058h-.345zm-1.181 0c-.057 0-.057-.058-.057-.087 0-.028-.029-1.526-.029-1.727 0-.029 0-.058.029-.058 0 0 .028-.029.057-.029h.403c.029 0 .029 0 .058.029s.029.058.029.058c0 .201-.029 1.699-.029 1.727 0 0 0 .087-.058.087zm-1.18 0c-.058 0-.058-.029-.087-.058 0-.029-.029-.086-.057-.144-.116-.288-.26-.749-.317-.892-.058-.202-.058-.432.23-.519.087-.029.202-.057.288-.086.115-.029.231-.058.317-.087h.057c.087 0 .144.058.173.116.115.23.173.432.259.691v.057s-.028.029-.057.029h-.288c-.029 0-.058 0-.058-.029-.057-.144-.086-.259-.144-.374 0 0-.028-.029-.057-.029h-.029l-.144.058c-.058.029-.086.086-.058.144 0 0 .288.806.375 1.065v.058s-.029.028-.058.028c0-.028-.345-.028-.345-.028zm1.353-2.189c-.029 0-.029 0-.058-.028-.115-.087-.23-.202-.316-.317 0 0-.029-.029 0-.087.086-.144.23-.23.345-.345h.058c.115.086.23.201.345.345.029.029.029.058 0 .087-.086.115-.201.23-.317.317-.028.028-.028.028-.057.028z" fill="#fff" fill-rule="nonzero"/></svg>